<svg width="53" height="52" viewBox="0 0 53 52" fill="none" xmlns="http://www.w3.org/2000/svg">
<path d="M26.394 36.3968C32.1471 36.3968 36.8109 31.7427 36.8109 26.0016C36.8109 20.2604 32.1471 15.6063 26.394 15.6063C20.6409 15.6063 15.9771 20.2604 15.9771 26.0016C15.9771 31.7427 20.6409 36.3968 26.394 36.3968Z" fill="#FEFFFE"/>
<path d="M26.394 44.7C25.114 44.7 23.8327 44.57 22.5892 44.3153C21.9902 44.1932 21.6048 43.6085 21.7272 43.0107C21.8496 42.413 22.4356 42.0284 23.0345 42.1505C24.1322 42.3753 25.2638 42.4897 26.3953 42.4897H26.3979C27.3654 42.4897 28.3341 42.4065 29.2782 42.2415C29.8797 42.1362 30.454 42.5377 30.5594 43.1394C30.6649 43.7397 30.2626 44.3127 29.6597 44.418C28.5893 44.6051 27.4917 44.7 26.3979 44.7H26.394ZM34.7614 42.6079C34.3668 42.6079 33.9853 42.3974 33.7848 42.0258C33.4957 41.4878 33.6975 40.8186 34.2366 40.5302C36.0921 39.5361 37.7224 38.2146 39.0831 36.6047C39.4763 36.1382 40.1755 36.0784 40.643 36.4721C41.1104 36.8646 41.1703 37.5623 40.7758 38.0288C39.2354 39.8532 37.3877 41.3501 35.2848 42.4767C35.1181 42.5663 34.9384 42.6079 34.7627 42.6079H34.7614ZM17.5722 42.3558C17.3847 42.3558 17.1946 42.3078 17.0214 42.209C14.9523 41.02 13.1489 39.4699 11.6632 37.6026C11.283 37.1244 11.3637 36.4306 11.8416 36.0511C12.3208 35.6717 13.0161 35.7523 13.3963 36.2292C14.7075 37.8781 16.2987 39.2464 18.1256 40.295C18.6555 40.599 18.8378 41.2747 18.5331 41.8036C18.3287 42.1583 17.9563 42.3571 17.5722 42.3571V42.3558ZM42.8136 33.629C42.6769 33.629 42.5376 33.6031 42.4021 33.5498C41.8344 33.3224 41.5584 32.6805 41.7862 32.1139C42.5662 30.17 42.962 28.1131 42.962 26.0016V25.9639C42.962 25.3545 43.4581 24.8594 44.0688 24.8594C44.6795 24.8594 45.1756 25.3545 45.1756 25.9639V26.0016C45.1756 28.3964 44.7264 30.7301 43.841 32.9365C43.6678 33.3679 43.2524 33.6303 42.8136 33.6303V33.629ZM9.78817 33.1444C9.33634 33.1444 8.91315 32.8676 8.74909 32.4193C7.99516 30.3649 7.61234 28.2053 7.61234 26.0003C7.61234 25.817 7.61495 25.6338 7.62016 25.4506C7.63839 24.8412 8.14751 24.3578 8.7582 24.3786C9.36889 24.3955 9.85067 24.9049 9.83244 25.5143C9.82723 25.6754 9.82593 25.8378 9.82593 26.0003C9.82593 27.9455 10.1632 29.8504 10.8273 31.6605C11.0369 32.2335 10.7426 32.8676 10.1684 33.0781C10.0434 33.1236 9.91448 33.1457 9.78817 33.1457V33.1444ZM43.1704 21.5511C42.7068 21.5511 42.2745 21.2587 42.1209 20.7961C41.4568 18.8068 40.4281 16.9824 39.0622 15.3711C38.6677 14.906 38.7263 14.2082 39.1924 13.8145C39.6586 13.4207 40.3578 13.4792 40.7524 13.9444C42.3006 15.7701 43.4673 17.84 44.2212 20.0971C44.4139 20.6753 44.1014 21.3016 43.5207 21.4939C43.4048 21.5329 43.2863 21.5511 43.1704 21.5511ZM9.77645 21.0963C9.65015 21.0963 9.52254 21.0742 9.39754 21.0287C8.82331 20.8195 8.52773 20.1867 8.73607 19.6124C9.55249 17.3774 10.7752 15.34 12.3729 13.5559C12.7804 13.1011 13.4797 13.0621 13.9354 13.4688C14.3911 13.8755 14.4302 14.5733 14.0226 15.0281C12.6138 16.6004 11.5343 18.3975 10.8155 20.3673C10.6515 20.8156 10.227 21.0937 9.77515 21.0937L9.77645 21.0963ZM35.6572 12.1187C35.4593 12.1187 35.2588 12.0655 35.0778 11.955C33.2822 10.8518 31.3186 10.1112 29.243 9.75383C28.6401 9.64988 28.2365 9.07814 28.3406 8.47781C28.4448 7.87619 29.0177 7.47338 29.6193 7.57733C31.9735 7.98274 34.2001 8.82346 36.2379 10.0735C36.7588 10.3931 36.9216 11.074 36.6012 11.5925C36.3916 11.9316 36.0296 12.1187 35.6572 12.1187ZM17.5435 11.8719C17.1607 11.8719 16.7896 11.6743 16.5839 11.3196C16.2779 10.7921 16.4589 10.1164 16.9875 9.811C19.0566 8.61685 21.3053 7.83851 23.6713 7.49677C24.2768 7.40971 24.838 7.82811 24.9252 8.43104C25.0124 9.03526 24.5932 9.5953 23.989 9.68236C21.903 9.98382 19.9212 10.6699 18.0969 11.7237C17.9225 11.8238 17.7323 11.8719 17.5435 11.8719Z" fill="#FEFFFE"/>
<path d="M24.7221 51.9987C24.6921 51.9987 24.6609 51.9987 24.6309 51.9961L24.4903 51.987C23.7377 51.9324 23.1713 51.2801 23.2247 50.5278C23.2793 49.7767 23.933 49.2102 24.6869 49.2648L24.8106 49.2739C25.5645 49.3232 26.1349 49.9729 26.0841 50.7253C26.0359 51.4465 25.4356 52 24.7208 52L24.7221 51.9987ZM31.3095 51.5673C30.6714 51.5673 30.0998 51.119 29.9696 50.4693C29.8224 49.7299 30.3029 49.0114 31.0425 48.8645L31.1636 48.8399C31.9032 48.6878 32.6259 49.1634 32.7782 49.9015C32.9306 50.6395 32.454 51.3607 31.7144 51.5127L31.5764 51.5413C31.4865 51.5595 31.3967 51.5686 31.3068 51.5686L31.3095 51.5673ZM18.1243 50.6421C17.9719 50.6421 17.8183 50.6161 17.6659 50.5629L17.5318 50.5148C16.8222 50.2575 16.455 49.4753 16.7128 48.7671C16.9706 48.0589 17.7545 47.6925 18.4641 47.9498L18.5813 47.9913C19.2923 48.2434 19.6647 49.0244 19.4121 49.7338C19.2128 50.2926 18.6855 50.6408 18.1243 50.6408V50.6421ZM37.6703 49.3479C37.1742 49.3479 36.6963 49.0776 36.4541 48.6073C36.109 47.9368 36.3734 47.1142 37.0439 46.7699L37.1546 46.7127C37.8239 46.3645 38.6495 46.6244 38.9984 47.2923C39.3474 47.9602 39.087 48.784 38.4177 49.1322L38.294 49.1959C38.0934 49.2985 37.8799 49.3479 37.669 49.3479H37.6703ZM12.1411 47.5495C11.8676 47.5495 11.5929 47.4677 11.352 47.2988L11.24 47.2195C10.6254 46.7816 10.4822 45.9305 10.9197 45.3172C11.3585 44.7039 12.2114 44.5609 12.826 44.9975L12.9302 45.0716C13.5461 45.5069 13.6919 46.358 13.2557 46.9739C12.9888 47.3494 12.5669 47.5508 12.1385 47.5508L12.1411 47.5495ZM43.1886 45.4965C42.8214 45.4965 42.4542 45.3497 42.1847 45.0586C41.6716 44.505 41.7055 43.6422 42.2589 43.1303L42.3514 43.0445C42.9034 42.53 43.7693 42.5598 44.2837 43.1108C44.7993 43.6617 44.7694 44.5245 44.2173 45.0391L44.1157 45.1327C43.8527 45.3756 43.5193 45.4952 43.1873 45.4952L43.1886 45.4965ZM7.2165 42.964C6.81936 42.964 6.42612 42.7924 6.15658 42.4624L6.06934 42.3545C5.59537 41.7685 5.68652 40.9096 6.27377 40.4353C6.86103 39.9623 7.72172 40.0533 8.19699 40.6393L8.27642 40.7368C8.7543 41.3202 8.66705 42.1804 8.0811 42.656C7.82719 42.8626 7.5212 42.9627 7.2178 42.9627L7.2165 42.964ZM47.4673 40.3054C47.2225 40.3054 46.9764 40.2404 46.7525 40.1027C46.1092 39.7077 45.9087 38.8682 46.3046 38.2263L46.371 38.1185C46.7642 37.4753 47.6054 37.2713 48.2499 37.6637C48.8945 38.0561 49.0989 38.8955 48.7056 39.5387L48.634 39.657C48.3762 40.0754 47.927 40.3067 47.4686 40.3067L47.4673 40.3054ZM3.70731 37.2271C3.17996 37.2271 2.67734 36.9204 2.45338 36.4072L2.39869 36.2798C2.10051 35.5872 2.42213 34.7855 3.11616 34.488C3.81018 34.1904 4.61358 34.5113 4.91177 35.2039L4.96125 35.3183C5.26203 36.0096 4.94562 36.8126 4.2529 37.114C4.07581 37.1907 3.88961 37.2284 3.70731 37.2284V37.2271ZM50.1888 34.1527C50.0638 34.1527 49.9361 34.1358 49.8098 34.0994C49.0846 33.8915 48.6653 33.1353 48.8736 32.4115L48.9075 32.292C49.1119 31.5669 49.8658 31.1433 50.5937 31.3473C51.3203 31.5513 51.7448 32.3037 51.5403 33.03L51.5026 33.1652C51.3307 33.7629 50.7838 34.1527 50.1888 34.1527ZM1.88306 30.7561C1.20987 30.7561 0.623916 30.2597 0.530164 29.5762L0.511935 29.4385C0.412974 28.6913 0.940329 28.0065 1.68904 27.9078C2.43906 27.809 3.12397 28.3353 3.22293 29.0824L3.23986 29.2072C3.34272 29.9543 2.81797 30.6417 2.07056 30.7444C2.00806 30.7535 1.94556 30.7574 1.88436 30.7574L1.88306 30.7561ZM51.1328 27.4985H51.125C50.3697 27.4946 49.7617 26.88 49.7656 26.1263V25.947C49.7656 25.1933 50.3776 24.5826 51.1328 24.5826C51.888 24.5826 52.5 25.1933 52.5 25.947V26.1419C52.4948 26.8929 51.8841 27.4985 51.1328 27.4985ZM1.87915 24.0343C1.81795 24.0343 1.75675 24.0304 1.69425 24.0213C0.945538 23.9199 0.420787 23.2325 0.522352 22.4867L0.540581 22.3502C0.64475 21.6044 1.33617 21.0833 2.08358 21.1873C2.83099 21.2912 3.35314 21.9812 3.24897 22.7271L3.23204 22.8518C3.13959 23.5366 2.55234 24.033 1.87915 24.033V24.0343ZM50.2434 20.7806C49.6445 20.7806 49.095 20.3842 48.927 19.7813L48.8932 19.6592C48.6887 18.9341 49.1119 18.1805 49.8385 17.9764C50.5651 17.7724 51.3203 18.1947 51.5247 18.9198L51.5612 19.0524C51.763 19.7787 51.3372 20.5311 50.6093 20.7325C50.4869 20.7663 50.3645 20.7832 50.2434 20.7832V20.7806ZM3.68257 17.5567C3.50158 17.5567 3.31668 17.5204 3.13959 17.4437C2.44687 17.1448 2.12785 16.3418 2.42734 15.6492L2.48463 15.5193C2.78933 14.8293 3.59533 14.5161 4.28675 14.8202C4.97817 15.1243 5.29068 15.9286 4.98729 16.6186L4.93781 16.7316C4.71385 17.2462 4.21123 17.5541 3.68257 17.5541V17.5567ZM47.5793 14.6071C47.1171 14.6071 46.6665 14.3732 46.4087 13.9496L46.3436 13.843C45.9491 13.2011 46.1509 12.3604 46.7942 11.9667C47.4374 11.5717 48.2799 11.7731 48.6744 12.4163L48.7473 12.5358C49.1393 13.1804 48.9322 14.0198 48.2864 14.4096C48.065 14.5434 47.8202 14.6071 47.5793 14.6071ZM7.18004 11.8108C6.87795 11.8108 6.57326 11.7107 6.31935 11.5054C5.7334 11.0311 5.64355 10.1722 6.11882 9.5862L6.20867 9.47706C6.68915 8.89492 7.54984 8.81176 8.13319 9.28994C8.71653 9.76812 8.79987 10.6283 8.32069 11.2105L8.24257 11.3053C7.97303 11.638 7.57719 11.8108 7.18004 11.8108ZM43.3423 9.3809C43.0063 9.3809 42.6691 9.25876 42.406 9.01057L42.3136 8.92351C41.7615 8.40895 41.7315 7.54614 42.2472 6.9952C42.7628 6.44425 43.6274 6.41436 44.1795 6.92893L44.2798 7.02248C44.8293 7.53835 44.8566 8.40245 44.3384 8.9508C44.0688 9.23667 43.7068 9.3809 43.3423 9.3809ZM12.0994 7.2148C11.671 7.2148 11.2504 7.01469 10.9835 6.64046C10.546 6.02584 10.6905 5.17473 11.3064 4.73813L11.421 4.65757C12.0395 4.22487 12.8924 4.3743 13.326 4.99022C13.7596 5.60743 13.6099 6.45724 12.9927 6.89124L12.8911 6.96271C12.6515 7.13293 12.3742 7.2148 12.1007 7.2148H12.0994ZM37.8539 5.48139C37.6416 5.48139 37.4255 5.43202 37.2236 5.32676L37.1091 5.26699C36.4385 4.92005 36.1767 4.09753 36.5231 3.42834C36.8708 2.75914 37.695 2.49796 38.3656 2.84361L38.4867 2.90598C39.156 3.25422 39.4164 4.07804 39.0674 4.74593C38.8239 5.21242 38.3474 5.48009 37.8539 5.48009V5.48139ZM18.0696 4.11052C17.5084 4.11052 16.9823 3.76358 16.7818 3.20484C16.5279 2.49537 16.8977 1.71443 17.6086 1.46104L17.7441 1.41296C18.4576 1.16478 19.2363 1.5416 19.485 2.25238C19.7337 2.96315 19.3561 3.74149 18.6438 3.98968L18.5305 4.02996C18.3782 4.08454 18.2232 4.11052 18.0696 4.11052ZM31.5152 3.20744C31.4227 3.20744 31.329 3.19834 31.2339 3.17885L31.1076 3.15286C30.368 3.00083 29.8915 2.27967 30.0438 1.5416C30.1961 0.803544 30.9201 0.327963 31.6584 0.479993L31.7925 0.50728C32.5321 0.661909 33.0061 1.38438 32.8512 2.12114C32.717 2.76434 32.148 3.20744 31.5139 3.20744H31.5152ZM24.6609 2.73705C23.9486 2.73705 23.3483 2.18611 23.2989 1.46754C23.2468 0.715185 23.8145 0.0641841 24.5684 0.012208L24.7091 0.00311223C25.463 -0.0475645 26.1127 0.526771 26.1596 1.27783C26.2078 2.03018 25.6349 2.67858 24.8822 2.72536L24.7572 2.73316C24.7247 2.73576 24.6934 2.73705 24.6609 2.73705Z" fill="#FEFFFE"/>
</svg>
