<svg width="20" height="20" viewBox="0 0 20 20" fill="none" xmlns="http://www.w3.org/2000/svg">
<path d="M13.2933 9.05527C13.1585 9.14514 12.9563 9.21255 12.7091 9.21255C12.3272 9.21255 11.9677 9.16761 11.6082 9.05527C11.5183 9.0328 11.4509 9.01034 11.406 9.01034C11.3386 9.01034 11.3161 9.05527 11.3161 9.14514V9.36982C11.3161 9.43723 11.3386 9.48216 11.3611 9.5271C11.3835 9.54956 11.4285 9.5945 11.4959 9.61697C11.8553 9.77424 12.2598 9.84165 12.7091 9.84165C13.1809 9.84165 13.5404 9.72931 13.8325 9.50463C14.1246 9.27995 14.2594 8.98787 14.2594 8.60591C14.2594 8.3363 14.192 8.13409 14.0572 7.95435C13.9224 7.79707 13.6977 7.6398 13.3832 7.52746L12.7541 7.28031C12.5069 7.19044 12.3272 7.10057 12.2598 7.01069C12.1699 6.92082 12.125 6.83095 12.125 6.67368C12.125 6.33666 12.3721 6.15692 12.8889 6.15692C13.181 6.15692 13.473 6.20185 13.7426 6.29172C13.8325 6.31419 13.8999 6.33666 13.9224 6.33666C13.9898 6.33666 14.0347 6.29172 14.0347 6.20185V5.97717C14.0347 5.90977 14.0123 5.86483 13.9898 5.8199C13.9673 5.77496 13.9224 5.75249 13.855 5.73003C13.518 5.61769 13.181 5.55028 12.8439 5.55028C12.417 5.55028 12.0576 5.66262 11.7879 5.86483C11.5183 6.06704 11.3835 6.35913 11.3835 6.69614C11.3835 7.21291 11.6756 7.59486 12.2598 7.81954L12.9338 8.06668C13.1585 8.15656 13.2933 8.22396 13.3832 8.31383C13.473 8.4037 13.4955 8.49357 13.4955 8.62838C13.4955 8.80812 13.4281 8.9654 13.2933 9.05527Z" fill="#FEFFFE"/>
<path d="M9.76583 5.8199V8.80813C9.38388 9.05527 9.00193 9.19008 8.61997 9.19008C8.37283 9.19008 8.19308 9.12268 8.08074 8.98787C7.9684 8.85306 7.92347 8.65085 7.92347 8.35877V5.8199C7.92347 5.70756 7.87853 5.66262 7.76619 5.66262H7.29437C7.18203 5.66262 7.13709 5.70756 7.13709 5.8199V8.60591C7.13709 8.98787 7.22696 9.30242 7.42917 9.50463C7.63139 9.70684 7.92347 9.81918 8.30542 9.81918C8.82218 9.81918 9.33894 9.63944 9.83324 9.27995L9.87817 9.54956C9.87817 9.61697 9.90064 9.63944 9.94558 9.6619C9.96804 9.68437 10.013 9.68437 10.0804 9.68437H10.4174C10.5297 9.68437 10.5747 9.63944 10.5747 9.5271V5.8199C10.5747 5.70756 10.5297 5.66262 10.4174 5.66262H9.94558C9.81077 5.66262 9.76583 5.73003 9.76583 5.8199Z" fill="#FEFFFE"/>
<path d="M5.49694 9.70684H5.96876C6.0811 9.70684 6.12604 9.6619 6.12604 9.54956V6.74108C6.12604 6.35913 6.03617 6.06704 5.83396 5.86483C5.63175 5.66262 5.36213 5.55028 4.98018 5.55028C4.46342 5.55028 3.92419 5.73003 3.40743 6.11198C3.22768 5.73003 2.89066 5.55028 2.39637 5.55028C1.90208 5.55028 1.40779 5.73003 0.913492 6.06704L0.868556 5.8199C0.868556 5.75249 0.846089 5.73003 0.801153 5.70756C0.778685 5.68509 0.733749 5.68509 0.688814 5.68509H0.329328C0.216988 5.68509 0.172052 5.73003 0.172052 5.84237V9.57203C0.172052 9.68437 0.216988 9.72931 0.329328 9.72931H0.801153C0.913492 9.72931 0.958428 9.68437 0.958428 9.57203V6.53887C1.34038 6.31419 1.72234 6.17938 2.12676 6.17938C2.35144 6.17938 2.50871 6.24679 2.59858 6.38159C2.68845 6.5164 2.75586 6.69614 2.75586 6.96576V9.54956C2.75586 9.6619 2.80079 9.70684 2.91313 9.70684H3.38496C3.4973 9.70684 3.54223 9.6619 3.54223 9.54956V6.65121C3.54223 6.60627 3.54223 6.56134 3.54223 6.53887C3.94665 6.29172 4.32861 6.17938 4.71056 6.17938C4.93524 6.17938 5.09252 6.24679 5.18239 6.38159C5.27226 6.5164 5.33966 6.69614 5.33966 6.96576V9.54956C5.33966 9.6619 5.3846 9.70684 5.49694 9.70684Z" fill="#FEFFFE"/>
<path d="M17.7419 12.6951C15.2929 13.7286 12.6193 14.2453 10.1927 14.2453C6.59786 14.2453 3.11534 13.2568 0.30686 11.6166C0.261924 11.5941 0.216988 11.5717 0.172052 11.5717C0.0147774 11.5717 -0.0750941 11.7514 0.082181 11.9087C2.68845 14.2678 6.14851 15.6833 9.96804 15.6833C12.7091 15.6833 15.8771 14.8295 18.0565 13.2118C18.4384 12.9422 18.1239 12.5378 17.7419 12.6951Z" fill="#FEFFFE"/>
<path d="M17.6745 6.56134C17.8767 6.33666 18.1913 6.22432 18.6406 6.22432C18.8653 6.22432 19.09 6.24679 19.2922 6.31419C19.3596 6.33666 19.3821 6.33666 19.427 6.33666C19.4944 6.33666 19.5394 6.29172 19.5394 6.17938V5.9547C19.5394 5.8873 19.5169 5.8199 19.4944 5.79743C19.472 5.77496 19.427 5.73003 19.3821 5.70756C19.09 5.64015 18.7979 5.57275 18.5283 5.57275C17.8992 5.57275 17.4274 5.75249 17.0679 6.13445C16.7309 6.49393 16.5511 7.03316 16.5511 7.7072C16.5511 8.38124 16.7084 8.898 17.0454 9.25748C17.3824 9.61697 17.8543 9.79671 18.4834 9.79671C18.8204 9.79671 19.1349 9.75178 19.3821 9.63944C19.4495 9.61697 19.4944 9.5945 19.5169 9.54956C19.5394 9.5271 19.5394 9.45969 19.5394 9.39229V9.16761C19.5394 9.05527 19.4944 9.01034 19.427 9.01034C19.4046 9.01034 19.3596 9.01034 19.3147 9.0328C19.0675 9.10021 18.8204 9.14514 18.5957 9.14514C18.1688 9.14514 17.8543 9.0328 17.6521 8.80813C17.4498 8.58345 17.36 8.22396 17.36 7.75213V7.6398C17.3824 7.1455 17.4723 6.78602 17.6745 6.56134Z" fill="#FEFFFE"/>
<path d="M18.6856 14.807C19.8539 13.8185 20.1685 11.7739 19.9213 11.4593C19.809 11.3245 19.2697 11.1897 18.5957 11.1897C17.8767 11.1897 17.023 11.347 16.3714 11.7964C16.1692 11.9312 16.2141 12.1109 16.4163 12.0884C17.1128 11.9986 18.6856 11.8188 18.9777 12.1783C19.2473 12.5378 18.6631 14.0207 18.3935 14.6722C18.3261 14.8745 18.4834 14.9419 18.6856 14.807Z" fill="#FEFFFE"/>
<path d="M15.5625 5.66262H15.0907C14.9784 5.66262 14.9334 5.70756 14.9334 5.8199V9.54956C14.9334 9.6619 14.9784 9.70684 15.0907 9.70684H15.5625C15.6749 9.70684 15.7198 9.6619 15.7198 9.54956V5.8199C15.7198 5.73003 15.6749 5.66262 15.5625 5.66262Z" fill="#FEFFFE"/>
<path d="M15.6974 4.13481C15.6075 4.04494 15.4727 4 15.3154 4C15.1581 4 15.0458 4.04494 14.9559 4.13481C14.866 4.22468 14.8211 4.33702 14.8211 4.47183C14.8211 4.60663 14.866 4.74144 14.9559 4.80884C15.0458 4.89871 15.1581 4.94365 15.3154 4.94365C15.4727 4.94365 15.585 4.89871 15.6749 4.80884C15.7648 4.71897 15.8097 4.60663 15.8097 4.47183C15.8097 4.33702 15.7872 4.20221 15.6974 4.13481Z" fill="#FEFFFE"/>
</svg>
