<svg width="20" height="20" viewBox="0 0 20 20" fill="none" xmlns="http://www.w3.org/2000/svg">
<g clip-path="url(#clip0_170_2761)">
<path d="M14.6075 12.4186C14.4428 12.4187 14.2818 12.3699 14.1448 12.2784C14.0078 12.1869 13.901 12.0568 13.838 11.9046C13.7749 11.7525 13.7584 11.585 13.7905 11.4234C13.8226 11.2619 13.9019 11.1134 14.0183 10.9969C14.1348 10.8804 14.2832 10.8011 14.4448 10.7689C14.6063 10.7368 14.7738 10.7532 14.926 10.8162C15.0782 10.8792 15.2083 10.986 15.2998 11.1229C15.3914 11.2599 15.4402 11.4209 15.4403 11.5856C15.44 11.8064 15.3522 12.0181 15.1961 12.1743C15.04 12.3304 14.8284 12.4183 14.6075 12.4186M5.40237 12.4186C5.23765 12.4187 5.07661 12.3699 4.93962 12.2784C4.80264 12.1869 4.69586 12.0568 4.63279 11.9046C4.56973 11.7525 4.5532 11.585 4.58531 11.4234C4.61741 11.2619 4.69671 11.1134 4.81317 10.9969C4.92963 10.8804 5.07802 10.8011 5.23958 10.7689C5.40113 10.7368 5.5686 10.7532 5.7208 10.8162C5.873 10.8792 6.0031 10.986 6.09465 11.1229C6.18619 11.2599 6.23507 11.4209 6.2351 11.5856C6.23489 11.8064 6.1471 12.0181 5.99099 12.1743C5.83488 12.3305 5.62319 12.4184 5.40237 12.4186M14.9062 7.40205L16.5706 4.51937C16.5933 4.48 16.6081 4.43652 16.6141 4.39144C16.62 4.34635 16.6171 4.30053 16.6053 4.25659C16.5936 4.21265 16.5733 4.17145 16.5456 4.13536C16.5179 4.09926 16.4834 4.06896 16.4441 4.0462C16.4047 4.02343 16.3612 4.00865 16.3161 4.00269C16.271 3.99672 16.2252 3.9997 16.1813 4.01145C16.1373 4.02319 16.0961 4.04348 16.06 4.07114C16.0239 4.09881 15.9937 4.13332 15.9709 4.17269L14.2855 7.09178C12.9967 6.50357 11.5493 6.17603 10.0048 6.17603C8.46035 6.17603 7.01305 6.50404 5.72426 7.09178L4.03903 4.17269C4.0163 4.13331 3.98603 4.09878 3.94996 4.0711C3.91389 4.04341 3.87271 4.0231 3.82879 4.01132C3.78486 3.99955 3.73905 3.99654 3.69396 4.00247C3.64888 4.0084 3.6054 4.02315 3.56602 4.04588C3.52663 4.06862 3.49211 4.09888 3.46442 4.13496C3.43673 4.17103 3.41642 4.21221 3.40465 4.25613C3.39287 4.30005 3.38986 4.34587 3.39579 4.39095C3.40172 4.43604 3.41647 4.47952 3.43921 4.5189L5.10372 7.40205C2.24568 8.95654 0.290828 11.8499 0.00488281 15.2684H20.005C19.7188 11.8499 17.7641 8.95654 14.9062 7.40205" fill="#FEFFFE"/>
</g>
<defs>
<clipPath id="clip0_170_2761">
<rect width="20" height="20" fill="white"/>
</clipPath>
</defs>
</svg>
