<svg width="20" height="20" viewBox="0 0 20 20" fill="none" xmlns="http://www.w3.org/2000/svg">
<g clip-path="url(#clip0_170_2771)">
<path d="M16.1638 9.32901L16.0246 10.1113H15.2811L15.4204 9.32901H16.1638Z" fill="#FEFFFE"/>
<path fill-rule="evenodd" clip-rule="evenodd" d="M1 14.224V5.77622C1 5.22228 1.29596 4.71031 1.77613 4.43334L9.11114 0.206819C9.58998 -0.0692652 10.1797 -0.0692652 10.6585 0.206819L17.9944 4.43378C18.4746 4.71031 18.7706 5.22228 18.7706 5.77622V14.224C18.7706 14.7779 18.4746 15.2899 17.9944 15.5664L10.659 19.7929C10.1801 20.069 9.59042 20.069 9.11158 19.7929L1.77613 15.5664C1.29596 15.2899 1 14.7779 1 14.224ZM9.86824 12.9405C10.9708 12.9405 11.9311 12.3309 12.4312 11.4307L14.9694 12.9255C13.9569 14.6933 12.0517 15.8847 9.86824 15.8847C6.6237 15.8847 3.99316 13.2541 3.99316 10.0096C3.99316 6.76505 6.6237 4.13452 9.86824 4.13452C12.0504 4.13452 13.9543 5.32456 14.9676 7.09061L12.4047 8.54304C11.8976 7.6684 10.9523 7.07957 9.86824 7.07957C8.24972 7.07957 6.93777 8.39152 6.93777 10.01C6.93777 11.6286 8.24972 12.9405 9.86824 12.9405ZM15.053 11.3933H14.5282L14.6619 10.6427H14.2362V10.1113H14.7565L14.8959 9.32901H14.4027V8.79761H14.9905L15.1241 8.04761H15.6484L15.515 8.79761H16.2584L16.3918 8.04761H16.9166L16.783 8.79761H17.2276V9.32901H16.6884L16.5491 10.1113H17.0611V10.6427H16.4544L16.3207 11.3933H15.7964L15.93 10.6427H15.1866L15.053 11.3933Z" fill="#FEFFFE"/>
</g>
<defs>
<clipPath id="clip0_170_2771">
<rect width="20" height="20" fill="white"/>
</clipPath>
</defs>
</svg>
