<svg width="20" height="20" viewBox="0 0 20 20" fill="none" xmlns="http://www.w3.org/2000/svg">
<path d="M15.6756 3H20V5.5235H15.6756V3Z" fill="#FEFFFE"/>
<path d="M15.6756 6.51445H20V9.03795H15.6756V6.51445Z" fill="#FEFFFE"/>
<path d="M20 10.0271H15.6756V12.5506H20V10.0271Z" fill="#FEFFFE"/>
<path d="M0 13.5416H4.32427V16.0651H0V13.5416Z" fill="#FEFFFE"/>
<path d="M9.54892 13.5416H5.22466V16.0651H9.54892V13.5416Z" fill="#FEFFFE"/>
<path d="M10.451 13.5416H14.7753V16.0651H10.451V13.5416Z" fill="#FEFFFE"/>
<path d="M20 13.5416H15.6756V16.0651H20V13.5416Z" fill="#FEFFFE"/>
<path d="M10.451 10.0271H14.7753V12.5506H10.451V10.0271Z" fill="#FEFFFE"/>
<path d="M9.54892 10.0271H5.22466V12.5506H9.54892V10.0271Z" fill="#FEFFFE"/>
<path d="M5.22466 6.51445H9.54892V9.03795H5.22466V6.51445Z" fill="#FEFFFE"/>
</svg>
