<svg width="20" height="20" viewBox="0 0 20 20" fill="none" xmlns="http://www.w3.org/2000/svg">
<path d="M9.0502 0H12.3205V15.1372C10.6429 15.4557 9.41118 15.5831 8.07344 15.5831C4.08106 15.5829 2 13.7782 2 10.3167C2 6.98266 4.2086 4.81681 7.62739 4.81681C8.15824 4.81681 8.56168 4.85914 9.0502 4.98654V0ZM9.0502 7.61954C8.66799 7.49228 8.34948 7.44981 7.94604 7.44981C6.28966 7.44981 5.334 8.46917 5.334 10.2528C5.334 11.9943 6.24719 12.9498 7.9248 12.9498C8.28564 12.9498 8.58306 12.9286 9.0502 12.865V7.61954Z" fill="#FEFFFE"/>
<path d="M17.5229 5.05024V12.6312C17.5229 15.2432 17.3318 16.496 16.7585 17.5791C16.2275 18.6198 15.5267 19.2779 14.0828 20L11.046 18.556C12.4901 17.8765 13.1908 17.2821 13.6367 16.3686C14.104 15.4343 14.2528 14.3512 14.2528 11.5058V5.05024H17.5229ZM14.2528 0.0173981H17.5229V3.37263H14.2528V0.0173981Z" fill="#FEFFFE"/>
</svg>
