<svg width="20" height="20" viewBox="0 0 20 20" fill="none" xmlns="http://www.w3.org/2000/svg">
<g clip-path="url(#clip0_170_2777)">
<path fill-rule="evenodd" clip-rule="evenodd" d="M1.81859 9.9264C1.81837 9.95093 1.81826 9.97549 1.81826 10.0001C1.81826 12.0101 2.54309 13.8508 3.74561 15.2752C5.86477 12.4562 8.05095 10.7562 10.4311 9.90743L10.4323 9.907C10.5357 9.87032 10.6405 9.83511 10.7467 9.8014C10.6662 9.61586 10.5844 9.4324 10.501 9.25059C10.4231 9.08061 10.3437 8.91189 10.2628 8.74409C7.84605 9.48731 5.05431 9.81833 1.81859 9.9264ZM2.04024 8.09913C4.92904 7.98944 7.34841 7.69235 9.40574 7.10214C8.61313 5.69048 7.67061 4.26361 6.48599 2.60924C4.27981 3.66008 2.61829 5.66964 2.04024 8.09913ZM8.2831 1.99872C9.42006 3.60684 10.3508 5.04193 11.1482 6.49496C12.7349 5.83168 14.0792 4.93 15.2487 3.72336C13.8281 2.53415 11.9977 1.81826 10.0001 1.81826C9.41115 1.81826 8.83675 1.88048 8.2831 1.99872ZM16.5062 5.03828C15.1854 6.38852 13.6865 7.38705 11.9788 8.11811C12.0379 8.24234 12.0961 8.36718 12.1537 8.49274C12.2897 8.78923 12.4215 9.08925 12.5498 9.39422C14.2263 9.15294 16.1378 9.22387 18.1751 9.66314C18.1048 7.92762 17.4939 6.33138 16.5062 5.03828ZM18.0453 11.497C16.2669 11.0863 14.6354 10.9938 13.2283 11.1418C13.7969 12.7293 14.3102 14.4944 14.8379 16.5991C16.4829 15.3911 17.6596 13.5828 18.0453 11.497ZM13.1966 17.534C12.6029 15.1178 12.0441 13.1892 11.4226 11.4955C11.2924 11.5346 11.1653 11.5762 11.0415 11.6201C9.04325 12.3327 7.08585 13.8107 5.07497 16.5341C6.44515 17.5685 8.15098 18.1819 10.0001 18.1819C11.1343 18.1819 12.2146 17.9511 13.1966 17.534ZM8.2016e-05 10.0001C8.2016e-05 4.47723 4.47724 7.62939e-05 10.0001 7.62939e-05C15.5229 7.62939e-05 20.0001 4.47723 20.0001 10.0001C20.0001 15.5229 15.5229 20.0001 10.0001 20.0001C4.47724 20.0001 8.2016e-05 15.5229 8.2016e-05 10.0001Z" fill="#FEFFFE"/>
</g>
<defs>
<clipPath id="clip0_170_2777">
<rect width="20" height="20" fill="white"/>
</clipPath>
</defs>
</svg>
