<svg width="20" height="20" viewBox="0 0 20 20" fill="none" xmlns="http://www.w3.org/2000/svg">
<g clip-path="url(#clip0_170_2785)">
<path d="M18.5224 0H1.47757C0.661019 0 0 0.661019 0 1.47757V18.5224C0 19.339 0.661019 20 1.47757 20H18.5224C19.339 20 20 19.339 20 18.5224V1.47757C20 0.661019 19.339 0 18.5224 0ZM5.96028 17.0365H2.95515V7.48507H5.96028V17.0365ZM4.45771 6.16303C3.49951 6.16303 2.72462 5.43536 2.72462 4.43827C2.72462 3.44119 3.49951 2.71073 4.45771 2.71073C5.41591 2.71073 6.19081 3.44119 6.19081 4.43827C6.19081 5.43536 5.41591 6.16303 4.45771 6.16303V6.16303ZM17.0449 17.0421H14.0397V11.8261C14.0397 10.2875 13.3843 9.81253 12.5427 9.81253C11.6512 9.81253 10.7763 10.4847 10.7763 11.865V17.0421H7.77114V7.4934H10.6624V8.81544H10.7013C10.9929 8.22663 12.0067 7.224 13.5592 7.224C15.2368 7.224 17.0504 8.2183 17.0504 11.1373V17.0449L17.0449 17.0421Z" fill="#FEFFFE"/>
</g>
<defs>
<clipPath id="clip0_170_2785">
<rect width="20" height="20" fill="white"/>
</clipPath>
</defs>
</svg>
