<svg width="20" height="20" viewBox="0 0 20 20" fill="none" xmlns="http://www.w3.org/2000/svg">
<g clip-path="url(#clip0_170_2791)">
<path fill-rule="evenodd" clip-rule="evenodd" d="M7.49295 0.1948C8.17834 0.073519 8.9573 0.00395363 9.77297 0.000163588C10.5886 -0.00362651 11.4391 0.0583587 12.2588 0.1948C13.5536 0.410608 14.6444 1.38195 14.6444 2.67502V7.21839C14.6444 8.5507 13.5854 9.643 12.2588 9.643H7.49295C5.87484 9.643 4.51223 11.0322 4.51223 12.607V14.787H2.87173C1.48503 14.787 0.675059 13.7805 0.335893 12.3679C-0.121627 10.4702 -0.102196 9.33612 0.335893 7.51869C0.715688 5.93312 1.92992 5.09964 3.31661 5.09964H9.87863V4.49348H5.10726V2.67502C5.10726 1.29813 5.47385 0.551508 7.49295 0.1948ZM8.08798 2.37473C8.08798 1.87177 7.6855 1.46272 7.19265 1.46272C6.69803 1.46272 6.29732 1.87177 6.29732 2.37473C6.29732 2.8759 6.69803 3.28118 7.19265 3.28118C7.6855 3.28118 8.08798 2.8759 8.08798 2.37473Z" fill="#FEFFFE"/>
<path fill-rule="evenodd" clip-rule="evenodd" d="M15.2395 7.21841V5.09965H17.0301C18.4186 5.09965 19.0731 6.13824 19.4158 7.5187C19.8928 9.43601 19.914 10.8733 19.4158 12.3679C18.9336 13.8197 18.4168 14.787 17.0301 14.787H9.87863V15.3931H14.6444V17.2116C14.6444 18.5885 13.46 19.2884 12.2588 19.6362C10.4516 20.1606 9.0033 20.0803 7.49295 19.6362C6.23168 19.2652 5.10726 18.5047 5.10726 17.2116V12.6682C5.10726 11.3609 6.18751 10.2436 7.49295 10.2436H12.2588C13.8468 10.2436 15.2395 8.86105 15.2395 7.21841ZM13.4544 17.5119C13.4544 17.0107 13.0537 16.6054 12.5591 16.6054C12.0662 16.6054 11.6637 17.0107 11.6637 17.5119C11.6637 18.0148 12.0662 18.4239 12.5591 18.4239C13.0537 18.4239 13.4544 18.0148 13.4544 17.5119Z" fill="#FEFFFE"/>
</g>
<defs>
<clipPath id="clip0_170_2791">
<rect width="20" height="20" fill="white"/>
</clipPath>
</defs>
</svg>
