<svg width="20" height="20" viewBox="0 0 20 20" fill="none" xmlns="http://www.w3.org/2000/svg">
<path d="M0.123077 11.2308L0 12.3385L0.123077 13.4462C0.123077 13.5077 0.184615 13.5077 0.184615 13.5077C0.246154 13.5077 0.246154 13.4462 0.246154 13.4462L0.430769 12.3385L0.246154 11.2308C0.246154 11.1692 0.184615 11.1692 0.184615 11.1692C0.184615 11.1692 0.123077 11.1692 0.123077 11.2308M0.861538 10.5538L0.676923 12.3385L0.861538 14.1231C0.861538 14.1846 0.923077 14.1846 0.923077 14.1846C0.984615 14.1846 0.984615 14.1231 0.984615 14.1231L1.23077 12.3385L0.984615 10.5538C0.984615 10.4923 0.923077 10.4923 0.923077 10.4923L0.861538 10.5538ZM3.2 10.3077L3.07692 12.3385L3.2 14.4923C3.2 14.5538 3.26154 14.6154 3.32308 14.6154C3.38462 14.6154 3.44615 14.5538 3.44615 14.4923L3.69231 12.3385L3.50769 10.3077C3.50769 10.2462 3.44615 10.1846 3.38462 10.1846C3.26154 10.1846 3.2 10.2462 3.2 10.3077M1.66154 10.1846L1.47692 12.3385L1.66154 14.3692C1.66154 14.4308 1.72308 14.4923 1.78462 14.4923C1.78462 14.4923 1.84615 14.4308 1.84615 14.3692L2.03077 12.3385L1.84615 10.1846C1.84615 10.1231 1.78462 10.0615 1.72308 10.0615C1.72308 10.1231 1.66154 10.1231 1.66154 10.1846ZM2.4 10.1231L2.21538 12.3385L2.4 14.4308C2.4 14.4923 2.46154 14.5538 2.52308 14.5538C2.58462 14.5538 2.64615 14.4923 2.64615 14.4308L2.83077 12.3385L2.64615 10.1231C2.64615 10.0615 2.58462 10 2.52308 10C2.46154 10 2.46154 10.0615 2.4 10.1231ZM4 9.01538L3.81538 12.3385L4 14.4923C4 14.5538 4.06154 14.6154 4.12308 14.6154C4.24615 14.6154 4.30769 14.5538 4.30769 14.4923L4.49231 12.3385L4.30769 9.01538C4.30769 8.95385 4.24615 8.89231 4.18462 8.89231C4.06154 8.89231 4 8.95385 4 9.01538M4.8 8.27692L4.67692 12.3385L4.8 14.4923C4.8 14.6154 4.86154 14.6769 4.98462 14.6769C5.04615 14.6769 5.16923 14.6154 5.16923 14.4923L5.35385 12.3385L5.16923 8.27692C5.16923 8.15385 5.10769 8.09231 4.98462 8.09231C4.86154 8.09231 4.8 8.15385 4.8 8.27692M8.06154 8.09231L7.93846 12.3385L8.06154 14.3692C8.06154 14.4923 8.18462 14.6154 8.30769 14.6154C8.43077 14.6154 8.55385 14.4923 8.55385 14.3692L8.67692 12.3385L8.55385 8.03077C8.55385 7.90769 8.43077 7.78462 8.30769 7.78462C8.12308 7.84615 8.06154 7.90769 8.06154 8.09231M5.6 7.90769L5.47692 12.3385L5.6 14.4308C5.6 14.5538 5.66154 14.6154 5.78462 14.6154C5.90769 14.6154 5.96923 14.5538 5.96923 14.4308L6.09231 12.3385L5.96923 7.90769C5.96923 7.78462 5.90769 7.72308 5.78462 7.72308C5.66154 7.72308 5.6 7.84615 5.6 7.90769M7.2 7.90769L7.07692 12.3385L7.2 14.4308C7.2 14.5538 7.32308 14.6769 7.44615 14.6769C7.56923 14.6769 7.69231 14.5538 7.69231 14.4308L7.81538 12.3385L7.69231 7.90769C7.69231 7.78462 7.56923 7.66154 7.44615 7.66154C7.32308 7.66154 7.2 7.78462 7.2 7.90769ZM6.4 7.78462L6.27692 12.3385L6.4 14.4308C6.4 14.5538 6.46154 14.6154 6.58462 14.6154C6.70769 14.6154 6.76923 14.5538 6.76923 14.4308L6.89231 12.3385L6.76923 7.78462C6.76923 7.66154 6.64615 7.6 6.58462 7.6C6.52308 7.6 6.4 7.66154 6.4 7.78462ZM8.86154 7.23077L8.73846 12.3385L8.86154 14.3692C8.86154 14.4923 8.98462 14.6154 9.10769 14.6154C9.23077 14.6154 9.35385 14.4923 9.35385 14.3692L9.47692 12.3385L9.35385 7.23077C9.35385 7.10769 9.23077 6.98462 9.10769 6.98462C8.98462 6.98462 8.86154 7.10769 8.86154 7.23077M9.72308 6.8L9.6 12.3385L9.72308 14.3692C9.72308 14.4923 9.84615 14.6154 9.96923 14.6154C10.0923 14.6154 10.2154 14.4923 10.2154 14.3692L10.3385 12.3385L10.2154 6.8C10.2154 6.67692 10.0923 6.55385 9.96923 6.55385H9.90769C9.78462 6.55385 9.72308 6.67692 9.72308 6.8M10.7077 6.24615C10.5231 6.30769 10.4615 6.36923 10.4615 6.55385V14.3692C10.4615 14.4923 10.5846 14.6154 10.7077 14.6769H17.5385C18.8923 14.6769 20 13.5692 20 12.2154C20 10.8615 18.8923 9.75385 17.5385 9.75385C17.2308 9.75385 16.8615 9.81538 16.6154 9.93846C16.4308 7.72308 14.5846 6 12.3077 6H12C11.5692 6 11.1385 6.12308 10.7077 6.24615" fill="#FEFFFE"/>
</svg>
