<svg width="20" height="20" viewBox="0 0 20 20" fill="none" xmlns="http://www.w3.org/2000/svg">
<g clip-path="url(#clip0_170_2795)">
<path d="M10.0002 0C4.47735 0 0 4.47723 0 10.0001C0 15.5231 4.47735 20 10.0002 20C15.5236 20 20.0005 15.5231 20.0005 10.0001C20.0005 4.47759 15.5236 0.000477658 10.0001 0.000477658L10.0002 0V0ZM14.5862 14.423C14.4071 14.7167 14.0226 14.8099 13.7288 14.6295C11.3809 13.1954 8.42509 12.8706 4.94414 13.6659C4.60871 13.7423 4.27434 13.5321 4.19792 13.1966C4.12113 12.861 4.33047 12.5266 4.66674 12.4502C8.47608 11.5796 11.7436 11.9546 14.3796 13.5656C14.6734 13.7459 14.7665 14.1292 14.5862 14.423V14.423ZM15.8102 11.6997C15.5845 12.0669 15.1045 12.1827 14.7379 11.957C12.0498 10.3044 7.95233 9.82595 4.7729 10.7911C4.36056 10.9156 3.92505 10.6832 3.79991 10.2716C3.67572 9.85927 3.90822 9.4246 4.31984 9.29921C7.95161 8.19725 12.4666 8.73104 15.5535 10.6279C15.9201 10.8536 16.0359 11.3337 15.8102 11.6998V11.6997ZM15.9153 8.8643C12.6923 6.94996 7.37472 6.77394 4.29751 7.70789C3.80337 7.85775 3.28081 7.5788 3.13106 7.08466C2.98132 6.59028 3.26003 6.06808 3.75453 5.91785C7.28695 4.84551 13.1592 5.05269 16.8699 7.25554C17.3153 7.51933 17.461 8.09336 17.1971 8.53722C16.9344 8.98169 16.3588 9.12821 15.9158 8.8643H15.9153Z" fill="#FEFFFE"/>
</g>
<defs>
<clipPath id="clip0_170_2795">
<rect width="20" height="20" fill="white"/>
</clipPath>
</defs>
</svg>
