<svg width="20" height="20" viewBox="0 0 20 20" fill="none" xmlns="http://www.w3.org/2000/svg">
<g clip-path="url(#clip0_195_2843)">
<path fill-rule="evenodd" clip-rule="evenodd" d="M1.10269e-06 0H20V20H9.53674e-07L1.10269e-06 0ZM11.1179 9V10.6403H8.5642V17.9438H6.5412V10.6403H3.99999V9H11.1179ZM13.0819 18.1252C12.6365 18.0421 12.2506 17.9173 11.9244 17.751V15.7551C12.2883 16.0586 12.6835 16.2863 13.1101 16.4381C13.5367 16.5898 13.9675 16.6657 14.4025 16.6657C14.6576 16.6657 14.8803 16.6428 15.0706 16.5971C15.2609 16.5514 15.4198 16.4879 15.5474 16.4068C15.6749 16.3258 15.7701 16.2302 15.8328 16.1199C15.8956 16.0098 15.927 15.8902 15.927 15.7613C15.927 15.5866 15.8768 15.4307 15.7764 15.2935C15.676 15.1562 15.539 15.0295 15.3654 14.913C15.1919 14.7966 14.9859 14.6843 14.7475 14.5762C14.5091 14.4681 14.2519 14.3579 13.9759 14.2456C13.2732 13.9545 12.7494 13.599 12.4043 13.179C12.0593 12.7591 11.8867 12.2518 11.8867 11.6571C11.8867 11.1914 11.9808 10.7912 12.1691 10.4564C12.3572 10.1217 12.6134 9.84623 12.9376 9.63C13.2617 9.41377 13.6371 9.25469 14.0637 9.15285C14.4903 9.05092 14.942 9 15.4188 9C15.8872 9 16.3023 9.02808 16.6641 9.08423C17.0259 9.14031 17.3594 9.22662 17.6648 9.34308V11.208C17.5142 11.1041 17.35 11.0126 17.1723 10.9336C16.9945 10.8545 16.8115 10.7891 16.6233 10.7371C16.4351 10.6852 16.248 10.6467 16.0618 10.6217C15.8757 10.5968 15.699 10.5843 15.5317 10.5843C15.3017 10.5843 15.0925 10.6062 14.9044 10.6498C14.7161 10.6935 14.5572 10.7548 14.4276 10.8338C14.2979 10.9128 14.1976 11.0074 14.1264 11.1176C14.0553 11.2278 14.0198 11.3515 14.0198 11.4887C14.0198 11.6384 14.0595 11.7725 14.139 11.891C14.2185 12.0095 14.3314 12.1218 14.4778 12.2278C14.6241 12.3338 14.8018 12.4378 15.011 12.5397C15.2201 12.6415 15.4564 12.7465 15.72 12.8547C16.0796 13.0044 16.4027 13.1635 16.6892 13.3318C16.9757 13.5002 17.2214 13.6905 17.4263 13.9025C17.6313 14.1146 17.7881 14.3568 17.8968 14.6292C18.0056 14.9016 18.06 15.2186 18.06 15.5804C18.06 16.0794 17.9648 16.4983 17.7745 16.8372C17.5842 17.1762 17.3259 17.4505 16.9997 17.6605C16.6735 17.8705 16.294 18.0213 15.8611 18.1128C15.4282 18.2042 14.9713 18.25 14.4903 18.25C13.9968 18.25 13.5273 18.2084 13.0819 18.1252Z" fill="white"/>
</g>
<defs>
<clipPath id="clip0_195_2843">
<rect width="20" height="20" fill="white"/>
</clipPath>
</defs>
</svg>
