<svg width="20" height="20" viewBox="0 0 20 20" fill="none" xmlns="http://www.w3.org/2000/svg">
<g clip-path="url(#clip0_170_2803)">
<path fill-rule="evenodd" clip-rule="evenodd" d="M14.2727 9.99998C14.2727 7.64053 12.3496 5.72725 9.99998 5.72725C7.65034 5.72725 5.72725 7.64053 5.72725 9.99998C5.72725 12.3602 7.63976 14.2727 9.99998 14.2727C12.3602 14.2727 14.2727 12.3602 14.2727 9.99998ZM12.6136 9.88634L8.1818 12.6136V7.38634L12.6136 9.88634Z" fill="#FEFFFE"/>
<path fill-rule="evenodd" clip-rule="evenodd" d="M20 10C20 15.5228 15.5228 20 10 20C4.47715 20 0 15.5228 0 10C0 4.47715 4.47715 0 10 0C15.5228 0 20 4.47715 20 10ZM4.27271 9.99998C4.27271 6.83747 6.83747 4.27271 9.99998 4.27271C13.1625 4.27271 15.7273 6.83747 15.7273 9.99998C15.7273 13.1625 13.1625 15.7273 9.99998 15.7273C6.83747 15.7273 4.27271 13.1625 4.27271 9.99998Z" fill="#FEFFFE"/>
</g>
<defs>
<clipPath id="clip0_170_2803">
<rect width="20" height="20" fill="white"/>
</clipPath>
</defs>
</svg>
