<?xml version="1.0" encoding="utf-8"?>
<!-- Generator: Adobe Illustrator 27.0.0, SVG Export Plug-In . SVG Version: 6.00 Build 0)  -->
<svg version="1.1" id="Layer_1" xmlns="http://www.w3.org/2000/svg" xmlns:xlink="http://www.w3.org/1999/xlink" x="0px" y="0px"
	 viewBox="0 0 512 512" style="enable-background:new 0 0 512 512;" xml:space="preserve">
<style type="text/css">
	.st0{fill:#1ED760;}
	.st1{fill:#FFFFFF;}
	.st2{fill:none;stroke:#FFFFFF;stroke-width:25.0916;stroke-linecap:round;stroke-miterlimit:10;}
	.st3{fill:none;stroke:#FFFFFF;stroke-width:22.5824;stroke-linecap:round;stroke-linejoin:round;stroke-miterlimit:10;}
	.st4{fill:none;stroke:#FFFFFF;stroke-width:20.0733;stroke-linecap:round;stroke-linejoin:round;stroke-miterlimit:10;}
</style>
<g>
	<circle class="st0" cx="256" cy="256" r="210.12"/>
	<g>
		<path class="st1" d="M123.01,170.99c36.29-10.83,74.41-15.54,112.23-15.14c21.37,0.32,43.41,4.65,61.52,17.12
			c26.42,17.88,27.43,40.47,44.93,62.86c9.85,12.9,22.36,23.83,36.42,31.98c18.36,11.45,3.09,38.42-16.23,28.39
			c-27.76-17.71-51.32-43.93-66.2-73.55c-6.91-13.27-16.49-21.48-30.58-25.49c-12.18-3.61-25.71-3.74-38.54-3.18
			c-31.59,0.95-62.95,5.57-93.61,13.3C109.04,212.39,99.77,178.88,123.01,170.99L123.01,170.99z"/>
	</g>
	<g>
		<path class="st1" d="M137.48,240.2c35.35-9.08,72.14-12.53,108.53-9.62c7.66-0.05,16.2-0.81,23.27-3.13
			c7.24-2.21,14.37-6.49,18.81-12.55c2.67-3.32,5.51-9.85,7.66-14.94c4.02-9.66,9.85-19.27,17.76-26.54
			c16.73-15.77,40.81-21.32,63.01-21.18c25.11,0.77,25.4,36.71,0.22,37.81c-14.75-0.57-28.45,0.69-39.29,9.71
			c-4.57,3.93-7.47,9.05-10.07,14.65c-3.39,7.2-6.55,14.14-12.39,21.55c-9.22,11.64-22.1,19.45-36.15,23.46
			c-11.55,3.34-22.79,4.1-34.53,3.79c-11.97-1.1-24.06-1.56-36.08-1.17c-21.04,0.72-42.02,3.91-62.27,9.65
			c-8.67,2.46-17.68-2.58-20.14-11.24C123.31,251.64,128.61,242.45,137.48,240.2L137.48,240.2z"/>
	</g>
	<path class="st2" d="M146.79,319.8c12.85-2.97,30.57-6.31,51.89-8.01c15.01-1.2,30.84-2.46,51.91-0.15
		c27.59,3.02,48.28,10.42,57.96,14.25c14.29,5.66,25.72,11.92,33.95,16.98"/>
	<path class="st3" d="M351.95,140.85c13.35,8.82,26.69,17.64,40.04,26.45c-9.25,11.62-18.51,23.23-27.76,34.85"/>
	<path class="st4" d="M375.48,246.78c2.09,15.86,4.17,31.72,6.26,47.58c-14.84,0.62-29.68,1.25-44.51,1.87"/>
</g>
</svg>
