<svg width="32" height="32" viewBox="0 0 32 32" fill="none" xmlns="http://www.w3.org/2000/svg">
<path d="M19.2933 15.0553C19.1585 15.1451 18.9563 15.2125 18.7091 15.2125C18.3272 15.2125 17.9677 15.1676 17.6082 15.0553C17.5183 15.0328 17.4509 15.0103 17.406 15.0103C17.3386 15.0103 17.3161 15.0553 17.3161 15.1451V15.3698C17.3161 15.4372 17.3386 15.4822 17.3611 15.5271C17.3835 15.5496 17.4285 15.5945 17.4959 15.617C17.8553 15.7742 18.2598 15.8416 18.7091 15.8416C19.1809 15.8416 19.5404 15.7293 19.8325 15.5046C20.1246 15.2799 20.2594 14.9879 20.2594 14.6059C20.2594 14.3363 20.192 14.1341 20.0572 13.9543C19.9224 13.7971 19.6977 13.6398 19.3832 13.5275L18.7541 13.2803C18.5069 13.1904 18.3272 13.1006 18.2598 13.0107C18.1699 12.9208 18.125 12.831 18.125 12.6737C18.125 12.3367 18.3721 12.1569 18.8889 12.1569C19.181 12.1569 19.473 12.2019 19.7426 12.2917C19.8325 12.3142 19.8999 12.3367 19.9224 12.3367C19.9898 12.3367 20.0347 12.2917 20.0347 12.2019V11.9772C20.0347 11.9098 20.0123 11.8648 19.9898 11.8199C19.9673 11.775 19.9224 11.7525 19.855 11.73C19.518 11.6177 19.181 11.5503 18.8439 11.5503C18.417 11.5503 18.0576 11.6626 17.7879 11.8648C17.5183 12.067 17.3835 12.3591 17.3835 12.6961C17.3835 13.2129 17.6756 13.5949 18.2598 13.8195L18.9338 14.0667C19.1585 14.1566 19.2933 14.224 19.3832 14.3138C19.473 14.4037 19.4955 14.4936 19.4955 14.6284C19.4955 14.8081 19.4281 14.9654 19.2933 15.0553Z" fill="#FEFFFE"/>
<path d="M15.7658 11.8199V14.8081C15.3839 15.0553 15.0019 15.1901 14.62 15.1901C14.3728 15.1901 14.1931 15.1227 14.0807 14.9879C13.9684 14.8531 13.9235 14.6508 13.9235 14.3588V11.8199C13.9235 11.7076 13.8785 11.6626 13.7662 11.6626H13.2944C13.182 11.6626 13.1371 11.7076 13.1371 11.8199V14.6059C13.1371 14.9879 13.227 15.3024 13.4292 15.5046C13.6314 15.7068 13.9235 15.8192 14.3054 15.8192C14.8222 15.8192 15.3389 15.6394 15.8332 15.2799L15.8782 15.5496C15.8782 15.617 15.9006 15.6394 15.9456 15.6619C15.968 15.6844 16.013 15.6844 16.0804 15.6844H16.4174C16.5297 15.6844 16.5747 15.6394 16.5747 15.5271V11.8199C16.5747 11.7076 16.5297 11.6626 16.4174 11.6626H15.9456C15.8108 11.6626 15.7658 11.73 15.7658 11.8199Z" fill="#FEFFFE"/>
<path d="M11.4969 15.7068H11.9688C12.0811 15.7068 12.126 15.6619 12.126 15.5496V12.7411C12.126 12.3591 12.0362 12.067 11.834 11.8648C11.6317 11.6626 11.3621 11.5503 10.9802 11.5503C10.4634 11.5503 9.92419 11.73 9.40743 12.112C9.22768 11.73 8.89066 11.5503 8.39637 11.5503C7.90208 11.5503 7.40779 11.73 6.91349 12.067L6.86856 11.8199C6.86856 11.7525 6.84609 11.73 6.80115 11.7076C6.77868 11.6851 6.73375 11.6851 6.68881 11.6851H6.32933C6.21699 11.6851 6.17205 11.73 6.17205 11.8424V15.572C6.17205 15.6844 6.21699 15.7293 6.32933 15.7293H6.80115C6.91349 15.7293 6.95843 15.6844 6.95843 15.572V12.5389C7.34038 12.3142 7.72234 12.1794 8.12676 12.1794C8.35144 12.1794 8.50871 12.2468 8.59858 12.3816C8.68845 12.5164 8.75586 12.6961 8.75586 12.9658V15.5496C8.75586 15.6619 8.80079 15.7068 8.91313 15.7068H9.38496C9.4973 15.7068 9.54223 15.6619 9.54223 15.5496V12.6512C9.54223 12.6063 9.54223 12.5613 9.54223 12.5389C9.94665 12.2917 10.3286 12.1794 10.7106 12.1794C10.9352 12.1794 11.0925 12.2468 11.1824 12.3816C11.2723 12.5164 11.3397 12.6961 11.3397 12.9658V15.5496C11.3397 15.6619 11.3846 15.7068 11.4969 15.7068Z" fill="#FEFFFE"/>
<path d="M23.7419 18.6951C21.2929 19.7286 18.6193 20.2453 16.1927 20.2453C12.5979 20.2453 9.11534 19.2568 6.30686 17.6166C6.26192 17.5941 6.21699 17.5717 6.17205 17.5717C6.01478 17.5717 5.92491 17.7514 6.08218 17.9087C8.68845 20.2678 12.1485 21.6833 15.968 21.6833C18.7091 21.6833 21.8771 20.8295 24.0565 19.2118C24.4384 18.9422 24.1239 18.5378 23.7419 18.6951Z" fill="#FEFFFE"/>
<path d="M23.6745 12.5613C23.8767 12.3367 24.1913 12.2243 24.6406 12.2243C24.8653 12.2243 25.09 12.2468 25.2922 12.3142C25.3596 12.3367 25.3821 12.3367 25.427 12.3367C25.4944 12.3367 25.5394 12.2917 25.5394 12.1794V11.9547C25.5394 11.8873 25.5169 11.8199 25.4944 11.7974C25.472 11.775 25.427 11.73 25.3821 11.7076C25.09 11.6402 24.7979 11.5728 24.5283 11.5728C23.8992 11.5728 23.4274 11.7525 23.0679 12.1344C22.7309 12.4939 22.5511 13.0332 22.5511 13.7072C22.5511 14.3812 22.7084 14.898 23.0454 15.2575C23.3824 15.617 23.8543 15.7967 24.4834 15.7967C24.8204 15.7967 25.1349 15.7518 25.3821 15.6394C25.4495 15.617 25.4944 15.5945 25.5169 15.5496C25.5394 15.5271 25.5394 15.4597 25.5394 15.3923V15.1676C25.5394 15.0553 25.4944 15.0103 25.427 15.0103C25.4046 15.0103 25.3596 15.0103 25.3147 15.0328C25.0675 15.1002 24.8204 15.1451 24.5957 15.1451C24.1688 15.1451 23.8543 15.0328 23.6521 14.8081C23.4498 14.5834 23.36 14.224 23.36 13.7521V13.6398C23.3824 13.1455 23.4723 12.786 23.6745 12.5613Z" fill="#FEFFFE"/>
<path d="M24.6856 20.807C25.8539 19.8185 26.1685 17.7739 25.9213 17.4593C25.809 17.3245 25.2697 17.1897 24.5957 17.1897C23.8767 17.1897 23.023 17.347 22.3714 17.7964C22.1692 17.9312 22.2141 18.1109 22.4163 18.0884C23.1128 17.9986 24.6856 17.8188 24.9777 18.1783C25.2473 18.5378 24.6631 20.0207 24.3935 20.6722C24.3261 20.8745 24.4834 20.9419 24.6856 20.807Z" fill="#FEFFFE"/>
<path d="M21.5625 11.6626H21.0907C20.9784 11.6626 20.9334 11.7076 20.9334 11.8199V15.5496C20.9334 15.6619 20.9784 15.7068 21.0907 15.7068H21.5625C21.6749 15.7068 21.7198 15.6619 21.7198 15.5496V11.8199C21.7198 11.73 21.6749 11.6626 21.5625 11.6626Z" fill="#FEFFFE"/>
<path d="M21.6974 10.1348C21.6075 10.0449 21.4727 10 21.3154 10C21.1581 10 21.0458 10.0449 20.9559 10.1348C20.866 10.2247 20.8211 10.337 20.8211 10.4718C20.8211 10.6066 20.866 10.7414 20.9559 10.8088C21.0458 10.8987 21.1581 10.9437 21.3154 10.9437C21.4727 10.9437 21.585 10.8987 21.6749 10.8088C21.7648 10.719 21.8097 10.6066 21.8097 10.4718C21.8097 10.337 21.7872 10.2022 21.6974 10.1348Z" fill="#FEFFFE"/>
</svg>
