<svg width="32" height="32" viewBox="0 0 32 32" fill="none" xmlns="http://www.w3.org/2000/svg">
<path d="M20.6075 18.4186C20.4428 18.4187 20.2818 18.3699 20.1448 18.2784C20.0078 18.1869 19.901 18.0568 19.838 17.9046C19.7749 17.7525 19.7584 17.585 19.7905 17.4234C19.8226 17.2619 19.9019 17.1134 20.0183 16.9969C20.1348 16.8804 20.2832 16.8011 20.4448 16.7689C20.6063 16.7368 20.7738 16.7532 20.926 16.8162C21.0782 16.8792 21.2083 16.986 21.2998 17.1229C21.3914 17.2599 21.4402 17.4209 21.4403 17.5856C21.44 17.8064 21.3522 18.0181 21.1961 18.1743C21.04 18.3304 20.8284 18.4183 20.6075 18.4186M11.4024 18.4186C11.2376 18.4187 11.0766 18.3699 10.9396 18.2784C10.8026 18.1869 10.6959 18.0568 10.6328 17.9046C10.5697 17.7525 10.5532 17.585 10.5853 17.4234C10.6174 17.2619 10.6967 17.1134 10.8132 16.9969C10.9296 16.8804 11.078 16.8011 11.2396 16.7689C11.4011 16.7368 11.5686 16.7532 11.7208 16.8162C11.873 16.8792 12.0031 16.986 12.0946 17.1229C12.1862 17.2599 12.2351 17.4209 12.2351 17.5856C12.2349 17.8064 12.1471 18.0181 11.991 18.1743C11.8349 18.3305 11.6232 18.4184 11.4024 18.4186M20.9062 13.4021L22.5706 10.5194C22.5933 10.48 22.6081 10.4365 22.6141 10.3914C22.62 10.3463 22.6171 10.3005 22.6053 10.2566C22.5936 10.2126 22.5733 10.1715 22.5456 10.1354C22.5179 10.0993 22.4834 10.069 22.4441 10.0462C22.4047 10.0234 22.3612 10.0086 22.3161 10.0027C22.271 9.99672 22.2252 9.9997 22.1813 10.0114C22.1373 10.0232 22.0961 10.0435 22.06 10.0711C22.0239 10.0988 21.9937 10.1333 21.9709 10.1727L20.2855 13.0918C18.9967 12.5036 17.5493 12.176 16.0048 12.176C14.4604 12.176 13.0131 12.504 11.7243 13.0918L10.039 10.1727C10.0163 10.1333 9.98603 10.0988 9.94996 10.0711C9.91389 10.0434 9.87271 10.0231 9.82879 10.0113C9.78486 9.99955 9.73905 9.99654 9.69396 10.0025C9.64888 10.0084 9.6054 10.0232 9.56602 10.0459C9.52663 10.0686 9.49211 10.0989 9.46442 10.135C9.43673 10.171 9.41642 10.2122 9.40465 10.2561C9.39287 10.3001 9.38986 10.3459 9.39579 10.391C9.40172 10.436 9.41647 10.4795 9.43921 10.5189L11.1037 13.4021C8.24568 14.9565 6.29083 17.8499 6.00488 21.2684H26.005C25.7188 17.8499 23.7641 14.9565 20.9062 13.4021" fill="#FEFFFE"/>
</svg>
