<svg width="32" height="32" viewBox="0 0 32 32" fill="none" xmlns="http://www.w3.org/2000/svg">
<path d="M25.792 20.7033C25.429 21.5418 24.9994 22.3136 24.5017 23.0232C23.8232 23.9906 23.2676 24.6602 22.8395 25.032C22.1758 25.6424 21.4647 25.955 20.7033 25.9728C20.1566 25.9728 19.4974 25.8172 18.73 25.5017C17.9601 25.1876 17.2525 25.032 16.6056 25.032C15.9271 25.032 15.1994 25.1876 14.4211 25.5017C13.6415 25.8172 13.0136 25.9816 12.5334 25.9979C11.8032 26.0291 11.0754 25.7076 10.3489 25.032C9.88522 24.6276 9.30523 23.9343 8.61044 22.9521C7.86498 21.9032 7.25211 20.687 6.77198 19.3004C6.25777 17.8026 6 16.3523 6 14.9482C6 13.3398 6.34755 11.9526 7.04367 10.7901C7.59077 9.85635 8.3186 9.11978 9.22953 8.57906C10.1405 8.03834 11.1247 7.76279 12.1847 7.74516C12.7647 7.74516 13.5253 7.92456 14.4704 8.27714C15.4129 8.63091 16.0181 8.81031 16.2834 8.81031C16.4818 8.81031 17.154 8.60054 18.2937 8.18233C19.3714 7.79449 20.281 7.6339 21.0262 7.69716C23.0454 7.86012 24.5624 8.65609 25.5713 10.0901C23.7654 11.1843 22.8721 12.7169 22.8899 14.6829C22.9062 16.2142 23.4617 17.4886 24.5535 18.5004C25.0483 18.97 25.6009 19.333 26.2157 19.5907C26.0824 19.9774 25.9416 20.3477 25.792 20.7033V20.7033ZM21.161 2.48013C21.161 3.68041 20.7225 4.8011 19.8485 5.8384C18.7937 7.07155 17.5179 7.78412 16.1344 7.67168C16.1167 7.52768 16.1065 7.37613 16.1065 7.21688C16.1065 6.06462 16.6081 4.83147 17.4989 3.8232C17.9436 3.3127 18.5093 2.88822 19.1952 2.54961C19.8796 2.21605 20.527 2.03158 21.1358 2C21.1536 2.16045 21.161 2.32092 21.161 2.48012V2.48013Z" fill="#FEFFFE"/>
</svg>
