<svg width="32" height="32" viewBox="0 0 32 32" fill="none" xmlns="http://www.w3.org/2000/svg">
<path d="M22.1638 15.3293L22.0246 16.1116H21.2811L21.4204 15.3293H22.1638Z" fill="#FEFFFE"/>
<path fill-rule="evenodd" clip-rule="evenodd" d="M7 20.2242V11.7765C7 11.2225 7.29596 10.7106 7.77613 10.4336L15.1111 6.20706C15.59 5.93098 16.1797 5.93098 16.6585 6.20706L23.9944 10.434C24.4746 10.7106 24.7706 11.2225 24.7706 11.7765V20.2242C24.7706 20.7781 24.4746 21.2901 23.9944 21.5666L16.659 25.7932C16.1801 26.0692 15.5904 26.0692 15.1116 25.7932L7.77613 21.5666C7.29596 21.2901 7 20.7781 7 20.2242ZM15.8682 18.9408C16.9708 18.9408 17.9311 18.3312 18.4312 17.4309L20.9694 18.9257C19.9569 20.6936 18.0517 21.8849 15.8682 21.8849C12.6237 21.8849 9.99316 19.2544 9.99316 16.0098C9.99316 12.7653 12.6237 10.1348 15.8682 10.1348C18.0504 10.1348 19.9543 11.3248 20.9676 13.0909L18.4047 14.5433C17.8976 13.6686 16.9523 13.0798 15.8682 13.0798C14.2497 13.0798 12.9378 14.3918 12.9378 16.0103C12.9378 17.6288 14.2497 18.9408 15.8682 18.9408ZM21.053 17.3936H20.5282L20.6619 16.643H20.2362V16.1116H20.7565L20.8959 15.3293H20.4027V14.7979H20.9905L21.1241 14.0479H21.6484L21.515 14.7979H22.2584L22.3918 14.0479H22.9166L22.783 14.7979H23.2276V15.3293H22.6884L22.5491 16.1116H23.0611V16.643H22.4544L22.3207 17.3936H21.7964L21.93 16.643H21.1866L21.053 17.3936Z" fill="#FEFFFE"/>
</svg>
