<svg width="32" height="32" viewBox="0 0 32 32" fill="none" xmlns="http://www.w3.org/2000/svg">
<path d="M15.0502 6H18.3205V21.1372C16.6429 21.4557 15.4112 21.5831 14.0734 21.5831C10.0811 21.5829 8 19.7782 8 16.3167C8 12.9827 10.2086 10.8168 13.6274 10.8168C14.1582 10.8168 14.5617 10.8591 15.0502 10.9865V6ZM15.0502 13.6195C14.668 13.4923 14.3495 13.4498 13.946 13.4498C12.2897 13.4498 11.334 14.4692 11.334 16.2528C11.334 17.9943 12.2472 18.9498 13.9248 18.9498C14.2856 18.9498 14.5831 18.9286 15.0502 18.865V13.6195Z" fill="#FEFFFE"/>
<path d="M23.5229 11.0502V18.6312C23.5229 21.2432 23.3318 22.496 22.7585 23.5791C22.2275 24.6198 21.5267 25.2779 20.0828 26L17.046 24.556C18.4901 23.8765 19.1908 23.2821 19.6367 22.3686C20.104 21.4343 20.2528 20.3512 20.2528 17.5058V11.0502H23.5229ZM20.2528 6.0174H23.5229V9.37263H20.2528V6.0174Z" fill="#FEFFFE"/>
</svg>
