<svg width="32" height="32" viewBox="0 0 32 32" fill="none" xmlns="http://www.w3.org/2000/svg">
<path fill-rule="evenodd" clip-rule="evenodd" d="M7.81851 15.9263C7.81829 15.9509 7.81818 15.9754 7.81818 16C7.81818 18.01 8.543 19.8508 9.74553 21.2751C11.8647 18.4562 14.0509 16.7561 16.431 15.9074L16.4323 15.9069C16.5356 15.8702 16.6404 15.835 16.7466 15.8013C16.6661 15.6158 16.5843 15.4323 16.5009 15.2505C16.423 15.0805 16.3436 14.9118 16.2627 14.744C13.846 15.4872 11.0542 15.8183 7.81851 15.9263ZM8.04016 14.0991C10.929 13.9894 13.3483 13.6923 15.4057 13.1021C14.6131 11.6904 13.6705 10.2635 12.4859 8.60916C10.2797 9.66 8.61821 11.6696 8.04016 14.0991ZM14.283 7.99864C15.42 9.60676 16.3508 11.0419 17.1481 12.4949C18.7348 11.8316 20.0792 10.9299 21.2486 9.72329C19.828 8.53407 17.9976 7.81818 16 7.81818C15.4111 7.81818 14.8367 7.88041 14.283 7.99864ZM22.5061 11.0382C21.1853 12.3884 19.6864 13.387 17.9788 14.118C18.0378 14.2423 18.0961 14.3671 18.1536 14.4927C18.2896 14.7892 18.4214 15.0892 18.5498 15.3941C20.2262 15.1529 22.1377 15.2238 24.175 15.6631C24.1047 13.9275 23.4938 12.3313 22.5061 11.0382ZM24.0452 17.4969C22.2669 17.0863 20.6354 16.9937 19.2283 17.1418C19.7968 18.7292 20.3101 20.4944 20.8378 22.599C22.4828 21.391 23.6596 19.5827 24.0452 17.4969ZM19.1965 23.5339C18.6028 21.1178 18.044 19.1891 17.4226 17.4955C17.2923 17.5345 17.1652 17.5761 17.0414 17.62C15.0432 18.3326 13.0858 19.8106 11.0749 22.534C12.4451 23.5684 14.1509 24.1818 16 24.1818C17.1342 24.1818 18.2145 23.951 19.1965 23.5339ZM6 16C6 10.4772 10.4772 6 16 6C21.5228 6 26 10.4772 26 16C26 21.5228 21.5228 26 16 26C10.4772 26 6 21.5228 6 16Z" fill="#FEFFFE"/>
</svg>
