<svg width="32" height="32" viewBox="0 0 32 32" fill="none" xmlns="http://www.w3.org/2000/svg">
<path fill-rule="evenodd" clip-rule="evenodd" d="M16 6C10.4751 6 6 10.4751 6 16C6 20.4199 8.86679 24.1645 12.8386 25.4905C13.3358 25.5826 13.52 25.2756 13.52 25.0055C13.52 24.7661 13.5138 24.14 13.5077 23.3051C10.7268 23.9067 10.1375 21.9668 10.1375 21.9668C9.68324 20.8128 9.0264 20.5058 9.0264 20.5058C8.11786 19.8858 9.09392 19.8981 9.09392 19.8981C10.0945 19.9718 10.6286 20.9294 10.6286 20.9294C11.5187 22.4579 12.9675 22.016 13.5384 21.7581C13.6304 21.1136 13.8883 20.6716 14.1707 20.4199C11.9484 20.1682 9.61571 19.3088 9.61571 15.4782C9.61571 14.3855 10.0025 13.4954 10.647 12.7956C10.5427 12.5439 10.1989 11.5249 10.7452 10.1498C10.7452 10.1498 11.5862 9.87968 13.4954 11.175C14.2934 10.954 15.1467 10.8435 16 10.8373C16.8471 10.8373 17.7066 10.954 18.5046 11.175C20.4137 9.87968 21.2548 10.1498 21.2548 10.1498C21.8011 11.5249 21.4573 12.5439 21.353 12.7956C21.9914 13.4954 22.3781 14.3855 22.3781 15.4782C22.3781 19.3211 20.0393 20.1621 17.8109 20.4137C18.167 20.7207 18.4923 21.3346 18.4923 22.2676C18.4923 23.6059 18.48 24.6802 18.48 25.0117C18.48 25.2818 18.6581 25.5887 19.1676 25.4905C23.1393 24.1645 26 20.4199 26 16.0061C26 10.4751 21.5249 6 16 6Z" fill="#FEFFFE"/>
</svg>
