<svg width="32" height="32" viewBox="0 0 32 32" fill="none" xmlns="http://www.w3.org/2000/svg">
<path d="M12.898 14.1481H15.8128V11.8874H12.6962L12.898 14.1481ZM7 6L8.60493 24.0002L15.8085 26L23.0189 24.0012L24.6257 6H7ZM21.6433 22.8551L15.8128 24.4714V22.1805L15.8093 22.1816L11.2869 20.9261L10.9707 17.3814H13.1869L13.351 19.2204L15.8098 19.8844L15.8129 19.8834V16.3558H10.8791L10.2836 9.67964H15.8128V7.47193H23.0166L21.6433 22.8551Z" fill="#FEFFFE"/>
<path d="M18.5302 16.3558L15.8129 16.3558V19.8834L18.274 19.2191L18.5302 16.3558ZM15.8128 7.47193V9.67964L21.342 9.67962L21.1443 11.8874L15.8128 11.8874V14.1481L20.9433 14.1481L20.3377 20.9261L15.8128 22.1805V24.4714L21.6433 22.8551L23.0166 7.47193H15.8128Z" fill="#FEFFFE"/>
</svg>
