<svg width="32" height="32" viewBox="0 0 32 32" fill="none" xmlns="http://www.w3.org/2000/svg">
<path fill-rule="evenodd" clip-rule="evenodd" d="M6 6H26V26H6V6ZM21.2888 22.7664C20.3619 22.7664 19.8377 22.2829 19.4349 21.6251L17.9076 22.5124C18.4593 23.6026 19.5869 24.4343 21.3323 24.4343C23.1174 24.4343 24.4466 23.5074 24.4466 21.8153C24.4466 20.2458 23.545 19.5477 21.9482 18.8629L21.4784 18.6616C20.672 18.3124 20.3228 18.0842 20.3228 17.5204C20.3228 17.0642 20.6717 16.715 21.2222 16.715C21.7619 16.715 22.1095 16.9426 22.4317 17.5204L23.8952 16.5807C23.2762 15.4918 22.4171 15.0759 21.2222 15.0759C19.5438 15.0759 18.4698 16.1489 18.4698 17.5585C18.4698 19.0886 19.3708 19.8124 20.7269 20.3902L21.1968 20.5918C22.0539 20.9667 22.565 21.195 22.565 21.8394C22.565 22.3772 22.0676 22.7664 21.2888 22.7664ZM14.0054 22.7547C13.3596 22.7547 13.0911 22.3118 12.7958 21.788L11.266 22.7142C11.7092 23.6521 12.5806 24.4308 14.0854 24.4308C15.7508 24.4308 16.8917 23.5451 16.8917 21.5991V15.1832H15.0123V21.5737C15.0123 22.5131 14.6228 22.7547 14.0054 22.7547Z" fill="#FEFFFE"/>
</svg>
