<svg width="32" height="32" viewBox="0 0 32 32" fill="none" xmlns="http://www.w3.org/2000/svg">
<path d="M24.5224 6H7.47757C6.66102 6 6 6.66102 6 7.47757V24.5224C6 25.339 6.66102 26 7.47757 26H24.5224C25.339 26 26 25.339 26 24.5224V7.47757C26 6.66102 25.339 6 24.5224 6ZM11.9603 23.0365H8.95515V13.4851H11.9603V23.0365ZM10.4577 12.163C9.49951 12.163 8.72462 11.4354 8.72462 10.4383C8.72462 9.44119 9.49951 8.71073 10.4577 8.71073C11.4159 8.71073 12.1908 9.44119 12.1908 10.4383C12.1908 11.4354 11.4159 12.163 10.4577 12.163V12.163ZM23.0449 23.0421H20.0397V17.8261C20.0397 16.2875 19.3843 15.8125 18.5427 15.8125C17.6512 15.8125 16.7763 16.4847 16.7763 17.865V23.0421H13.7711V13.4934H16.6624V14.8154H16.7013C16.9929 14.2266 18.0067 13.224 19.5592 13.224C21.2368 13.224 23.0504 14.2183 23.0504 17.1373V23.0449L23.0449 23.0421Z" fill="#FEFFFE"/>
</svg>
