<svg width="32" height="32" viewBox="0 0 32 32" fill="none" xmlns="http://www.w3.org/2000/svg">
<path fill-rule="evenodd" clip-rule="evenodd" d="M13.4929 6.1948C14.1783 6.07352 14.9573 6.00395 15.773 6.00016C16.5886 5.99637 17.4391 6.05836 18.2588 6.1948C19.5536 6.41061 20.6444 7.38195 20.6444 8.67502V13.2184C20.6444 14.5507 19.5854 15.643 18.2588 15.643H13.4929C11.8748 15.643 10.5122 17.0322 10.5122 18.607V20.787H8.87173C7.48503 20.787 6.67506 19.7805 6.33589 18.3679C5.87837 16.4702 5.8978 15.3361 6.33589 13.5187C6.71569 11.9331 7.92992 11.0996 9.31661 11.0996H15.8786V10.4935H11.1073V8.67502C11.1073 7.29813 11.4739 6.55151 13.4929 6.1948ZM14.088 8.37473C14.088 7.87177 13.6855 7.46272 13.1927 7.46272C12.698 7.46272 12.2973 7.87177 12.2973 8.37473C12.2973 8.8759 12.698 9.28118 13.1927 9.28118C13.6855 9.28118 14.088 8.8759 14.088 8.37473Z" fill="#FEFFFE"/>
<path fill-rule="evenodd" clip-rule="evenodd" d="M21.2395 13.2184V11.0997H23.0301C24.4186 11.0997 25.0731 12.1382 25.4158 13.5187C25.8928 15.436 25.914 16.8733 25.4158 18.3679C24.9336 19.8197 24.4168 20.787 23.0301 20.787H15.8786V21.3931H20.6444V23.2116C20.6444 24.5885 19.46 25.2884 18.2588 25.6362C16.4516 26.1606 15.0033 26.0803 13.4929 25.6362C12.2317 25.2652 11.1073 24.5047 11.1073 23.2116V18.6682C11.1073 17.3609 12.1875 16.2436 13.4929 16.2436H18.2588C19.8468 16.2436 21.2395 14.861 21.2395 13.2184ZM19.4544 23.5119C19.4544 23.0107 19.0537 22.6054 18.5591 22.6054C18.0662 22.6054 17.6637 23.0107 17.6637 23.5119C17.6637 24.0148 18.0662 24.4239 18.5591 24.4239C19.0537 24.4239 19.4544 24.0148 19.4544 23.5119Z" fill="#FEFFFE"/>
</svg>
