<svg width="32" height="32" viewBox="0 0 32 32" fill="none" xmlns="http://www.w3.org/2000/svg">
<path d="M6.12308 17.2308L6 18.3385L6.12308 19.4462C6.12308 19.5077 6.18462 19.5077 6.18462 19.5077C6.24615 19.5077 6.24615 19.4462 6.24615 19.4462L6.43077 18.3385L6.24615 17.2308C6.24615 17.1692 6.18462 17.1692 6.18462 17.1692C6.18462 17.1692 6.12308 17.1692 6.12308 17.2308M6.86154 16.5538L6.67692 18.3385L6.86154 20.1231C6.86154 20.1846 6.92308 20.1846 6.92308 20.1846C6.98462 20.1846 6.98462 20.1231 6.98462 20.1231L7.23077 18.3385L6.98462 16.5538C6.98462 16.4923 6.92308 16.4923 6.92308 16.4923L6.86154 16.5538ZM9.2 16.3077L9.07692 18.3385L9.2 20.4923C9.2 20.5538 9.26154 20.6154 9.32308 20.6154C9.38462 20.6154 9.44615 20.5538 9.44615 20.4923L9.69231 18.3385L9.50769 16.3077C9.50769 16.2462 9.44615 16.1846 9.38462 16.1846C9.26154 16.1846 9.2 16.2462 9.2 16.3077M7.66154 16.1846L7.47692 18.3385L7.66154 20.3692C7.66154 20.4308 7.72308 20.4923 7.78462 20.4923C7.78462 20.4923 7.84615 20.4308 7.84615 20.3692L8.03077 18.3385L7.84615 16.1846C7.84615 16.1231 7.78462 16.0615 7.72308 16.0615C7.72308 16.1231 7.66154 16.1231 7.66154 16.1846ZM8.4 16.1231L8.21538 18.3385L8.4 20.4308C8.4 20.4923 8.46154 20.5538 8.52308 20.5538C8.58462 20.5538 8.64615 20.4923 8.64615 20.4308L8.83077 18.3385L8.64615 16.1231C8.64615 16.0615 8.58462 16 8.52308 16C8.46154 16 8.46154 16.0615 8.4 16.1231ZM10 15.0154L9.81538 18.3385L10 20.4923C10 20.5538 10.0615 20.6154 10.1231 20.6154C10.2462 20.6154 10.3077 20.5538 10.3077 20.4923L10.4923 18.3385L10.3077 15.0154C10.3077 14.9538 10.2462 14.8923 10.1846 14.8923C10.0615 14.8923 10 14.9538 10 15.0154M10.8 14.2769L10.6769 18.3385L10.8 20.4923C10.8 20.6154 10.8615 20.6769 10.9846 20.6769C11.0462 20.6769 11.1692 20.6154 11.1692 20.4923L11.3538 18.3385L11.1692 14.2769C11.1692 14.1538 11.1077 14.0923 10.9846 14.0923C10.8615 14.0923 10.8 14.1538 10.8 14.2769M14.0615 14.0923L13.9385 18.3385L14.0615 20.3692C14.0615 20.4923 14.1846 20.6154 14.3077 20.6154C14.4308 20.6154 14.5538 20.4923 14.5538 20.3692L14.6769 18.3385L14.5538 14.0308C14.5538 13.9077 14.4308 13.7846 14.3077 13.7846C14.1231 13.8462 14.0615 13.9077 14.0615 14.0923M11.6 13.9077L11.4769 18.3385L11.6 20.4308C11.6 20.5538 11.6615 20.6154 11.7846 20.6154C11.9077 20.6154 11.9692 20.5538 11.9692 20.4308L12.0923 18.3385L11.9692 13.9077C11.9692 13.7846 11.9077 13.7231 11.7846 13.7231C11.6615 13.7231 11.6 13.8462 11.6 13.9077M13.2 13.9077L13.0769 18.3385L13.2 20.4308C13.2 20.5538 13.3231 20.6769 13.4462 20.6769C13.5692 20.6769 13.6923 20.5538 13.6923 20.4308L13.8154 18.3385L13.6923 13.9077C13.6923 13.7846 13.5692 13.6615 13.4462 13.6615C13.3231 13.6615 13.2 13.7846 13.2 13.9077ZM12.4 13.7846L12.2769 18.3385L12.4 20.4308C12.4 20.5538 12.4615 20.6154 12.5846 20.6154C12.7077 20.6154 12.7692 20.5538 12.7692 20.4308L12.8923 18.3385L12.7692 13.7846C12.7692 13.6615 12.6462 13.6 12.5846 13.6C12.5231 13.6 12.4 13.6615 12.4 13.7846ZM14.8615 13.2308L14.7385 18.3385L14.8615 20.3692C14.8615 20.4923 14.9846 20.6154 15.1077 20.6154C15.2308 20.6154 15.3538 20.4923 15.3538 20.3692L15.4769 18.3385L15.3538 13.2308C15.3538 13.1077 15.2308 12.9846 15.1077 12.9846C14.9846 12.9846 14.8615 13.1077 14.8615 13.2308M15.7231 12.8L15.6 18.3385L15.7231 20.3692C15.7231 20.4923 15.8462 20.6154 15.9692 20.6154C16.0923 20.6154 16.2154 20.4923 16.2154 20.3692L16.3385 18.3385L16.2154 12.8C16.2154 12.6769 16.0923 12.5538 15.9692 12.5538H15.9077C15.7846 12.5538 15.7231 12.6769 15.7231 12.8M16.7077 12.2462C16.5231 12.3077 16.4615 12.3692 16.4615 12.5538V20.3692C16.4615 20.4923 16.5846 20.6154 16.7077 20.6769H23.5385C24.8923 20.6769 26 19.5692 26 18.2154C26 16.8615 24.8923 15.7538 23.5385 15.7538C23.2308 15.7538 22.8615 15.8154 22.6154 15.9385C22.4308 13.7231 20.5846 12 18.3077 12H18C17.5692 12 17.1385 12.1231 16.7077 12.2462" fill="#FEFFFE"/>
</svg>
