<svg width="32" height="32" viewBox="0 0 32 32" fill="none" xmlns="http://www.w3.org/2000/svg">
<path d="M16.0002 6C10.4774 6 6 10.4772 6 16.0001C6 21.5231 10.4774 26 16.0002 26C21.5236 26 26.0005 21.5231 26.0005 16.0001C26.0005 10.4776 21.5236 6.00048 16.0001 6.00048L16.0002 6V6ZM20.5862 20.423C20.4071 20.7167 20.0226 20.8099 19.7288 20.6295C17.3809 19.1954 14.4251 18.8706 10.9441 19.6659C10.6087 19.7423 10.2743 19.5321 10.1979 19.1966C10.1211 18.861 10.3305 18.5266 10.6667 18.4502C14.4761 17.5796 17.7436 17.9546 20.3796 19.5656C20.6734 19.7459 20.7665 20.1292 20.5862 20.423V20.423ZM21.8102 17.6997C21.5845 18.0669 21.1045 18.1827 20.7379 17.957C18.0498 16.3044 13.9523 15.826 10.7729 16.7911C10.3606 16.9156 9.92505 16.6832 9.79991 16.2716C9.67572 15.8593 9.90822 15.4246 10.3198 15.2992C13.9516 14.1973 18.4666 14.731 21.5535 16.6279C21.9201 16.8536 22.0359 17.3337 21.8102 17.6998V17.6997ZM21.9153 14.8643C18.6923 12.95 13.3747 12.7739 10.2975 13.7079C9.80337 13.8578 9.28081 13.5788 9.13106 13.0847C8.98132 12.5903 9.26003 12.0681 9.75453 11.9179C13.2869 10.8455 19.1592 11.0527 22.8699 13.2555C23.3153 13.5193 23.461 14.0934 23.1971 14.5372C22.9344 14.9817 22.3588 15.1282 21.9158 14.8643H21.9153Z" fill="#FEFFFE"/>
</svg>
