<svg width="32" height="32" viewBox="0 0 32 32" fill="none" xmlns="http://www.w3.org/2000/svg">
<path d="M16 26C14.6265 26 13.3302 25.7377 12.1111 25.213C10.892 24.6883 9.83117 23.9747 8.9287 23.0722C8.02562 22.1691 7.31173 21.108 6.78704 19.8889C6.26235 18.6698 6 17.3735 6 16C6 14.6265 6.26235 13.3302 6.78704 12.1111C7.31173 10.892 8.02562 9.83086 8.9287 8.92778C9.83117 8.02531 10.892 7.31173 12.1111 6.78704C13.3302 6.26235 14.6265 6 16 6C17.3735 6 18.6698 6.26235 19.8889 6.78704C21.108 7.31173 22.1691 8.02531 23.0722 8.92778C23.9747 9.83086 24.6883 10.892 25.213 12.1111C25.7377 13.3302 26 14.6265 26 16C26 17.3735 25.7377 18.6698 25.213 19.8889C24.6883 21.108 23.9747 22.1691 23.0722 23.0722C22.1691 23.9747 21.108 24.6883 19.8889 25.213C18.6698 25.7377 17.3735 26 16 26ZM16 23.4769C16.3704 22.9367 16.6944 22.3617 16.9722 21.7519C17.25 21.1426 17.4815 20.5216 17.6667 19.8889H14.3333C14.5185 20.5216 14.75 21.1426 15.0278 21.7519C15.3056 22.3617 15.6296 22.9367 16 23.4769ZM13.3611 23.0602C13.0988 22.5972 12.871 22.0994 12.6778 21.5667C12.4852 21.0346 12.3194 20.4753 12.1806 19.8889H9.54167C9.95833 20.6142 10.5022 21.2546 11.1731 21.8102C11.8448 22.3657 12.5741 22.7824 13.3611 23.0602ZM18.6389 23.0602C19.4259 22.7824 20.1549 22.3657 20.8259 21.8102C21.4975 21.2546 22.0417 20.6142 22.4583 19.8889H19.8194C19.6806 20.4753 19.5148 21.0346 19.3222 21.5667C19.129 22.0994 18.9012 22.5972 18.6389 23.0602ZM8.66204 17.8056H11.7639C11.733 17.5278 11.7062 17.2383 11.6833 16.937C11.6599 16.6364 11.6481 16.3241 11.6481 16C11.6481 15.6759 11.6599 15.3636 11.6833 15.063C11.7062 14.7617 11.733 14.4722 11.7639 14.1944H8.66204C8.58488 14.4722 8.53086 14.7617 8.5 15.063C8.46914 15.3636 8.4537 15.6759 8.4537 16C8.4537 16.3241 8.46914 16.6364 8.5 16.937C8.53086 17.2383 8.58488 17.5278 8.66204 17.8056ZM13.8704 17.8056H18.1296C18.1759 17.5278 18.2108 17.2383 18.2343 16.937C18.2571 16.6364 18.2685 16.3241 18.2685 16C18.2685 15.6759 18.2571 15.3636 18.2343 15.063C18.2108 14.7617 18.1759 14.4722 18.1296 14.1944H13.8704C13.8241 14.4722 13.7895 14.7617 13.7667 15.063C13.7432 15.3636 13.7315 15.6759 13.7315 16C13.7315 16.3241 13.7432 16.6364 13.7667 16.937C13.7895 17.2383 13.8241 17.5278 13.8704 17.8056ZM20.2361 17.8056H23.338C23.4151 17.5278 23.4691 17.2383 23.5 16.937C23.5309 16.6364 23.5463 16.3241 23.5463 16C23.5463 15.6759 23.5309 15.3636 23.5 15.063C23.4691 14.7617 23.4151 14.4722 23.338 14.1944H20.2361C20.267 14.4722 20.2941 14.7617 20.3176 15.063C20.3404 15.3636 20.3519 15.6759 20.3519 16C20.3519 16.3241 20.3404 16.6364 20.3176 16.937C20.2941 17.2383 20.267 17.5278 20.2361 17.8056ZM19.8194 12.1111H22.4583C22.0417 11.3858 21.4975 10.7454 20.8259 10.1898C20.1549 9.63426 19.4259 9.21759 18.6389 8.93981C18.9012 9.40278 19.129 9.90031 19.3222 10.4324C19.5148 10.9651 19.6806 11.5247 19.8194 12.1111ZM14.3333 12.1111H17.6667C17.4815 11.4784 17.25 10.8611 16.9722 10.2593C16.6944 9.65741 16.3704 9.04012 16 8.40741C15.6296 9.04012 15.3056 9.65741 15.0278 10.2593C14.75 10.8611 14.5185 11.4784 14.3333 12.1111ZM9.54167 12.1111H12.1806C12.3194 11.5247 12.4852 10.9651 12.6778 10.4324C12.871 9.90031 13.0988 9.40278 13.3611 8.93981C12.5741 9.21759 11.8448 9.63426 11.1731 10.1898C10.5022 10.7454 9.95833 11.3858 9.54167 12.1111Z" fill="#FEFFFE"/>
</svg>
