<svg width="32" height="32" viewBox="0 0 32 32" fill="none" xmlns="http://www.w3.org/2000/svg">
<path fill-rule="evenodd" clip-rule="evenodd" d="M20.2727 16C20.2727 13.6405 18.3496 11.7273 16 11.7273C13.6503 11.7273 11.7273 13.6405 11.7273 16C11.7273 18.3602 13.6398 20.2727 16 20.2727C18.3602 20.2727 20.2727 18.3602 20.2727 16ZM18.6136 15.8863L14.1818 18.6136V13.3863L18.6136 15.8863Z" fill="#FEFFFE"/>
<path fill-rule="evenodd" clip-rule="evenodd" d="M26 16C26 21.5228 21.5228 26 16 26C10.4772 26 6 21.5228 6 16C6 10.4772 10.4772 6 16 6C21.5228 6 26 10.4772 26 16ZM10.2727 16C10.2727 12.8375 12.8375 10.2727 16 10.2727C19.1625 10.2727 21.7273 12.8375 21.7273 16C21.7273 19.1625 19.1625 21.7273 16 21.7273C12.8375 21.7273 10.2727 19.1625 10.2727 16Z" fill="#FEFFFE"/>
</svg>
