<svg width="20" height="20" viewBox="0 0 20 20" fill="none" xmlns="http://www.w3.org/2000/svg">
<path d="M6.89804 8.14809H9.81282V5.8874H6.69625L6.89804 8.14809ZM1 0L2.60493 18.0002L9.8085 20L17.0189 18.0012L18.6257 0H1ZM15.6433 16.8551L9.81282 18.4714V16.1805L9.80929 16.1816L5.28695 14.9261L4.9707 11.3814H7.18689L7.35102 13.2204L9.80976 13.8844L9.81287 13.8834V10.3558H4.87911L4.28359 3.67964H9.81282V1.47193H17.0166L15.6433 16.8551Z" fill="black"/>
<path d="M12.5302 10.3558L9.81287 10.3558V13.8834L12.274 13.2191L12.5302 10.3558ZM9.81282 1.47193V3.67964L15.342 3.67962L15.1443 5.88738L9.81282 5.8874V8.14809L14.9433 8.14808L14.3377 14.9261L9.81282 16.1805V18.4714L15.6433 16.8551L17.0166 1.47193H9.81282Z" fill="black"/>
</svg>
