<svg width="20" height="20" viewBox="0 0 20 20" fill="none" xmlns="http://www.w3.org/2000/svg">
<g clip-path="url(#clip0_170_2783)">
<path fill-rule="evenodd" clip-rule="evenodd" d="M0 0H20V20H0V0ZM15.2888 16.7664C14.3619 16.7664 13.8377 16.2829 13.4349 15.6251L11.9076 16.5124C12.4593 17.6026 13.5869 18.4343 15.3323 18.4343C17.1174 18.4343 18.4466 17.5074 18.4466 15.8153C18.4466 14.2458 17.545 13.5477 15.9482 12.8629L15.4784 12.6616C14.672 12.3124 14.3228 12.0842 14.3228 11.5204C14.3228 11.0642 14.6717 10.715 15.2222 10.715C15.7619 10.715 16.1095 10.9426 16.4317 11.5204L17.8952 10.5807C17.2762 9.4918 16.4171 9.07593 15.2222 9.07593C13.5438 9.07593 12.4698 10.1489 12.4698 11.5585C12.4698 13.0886 13.3708 13.8124 14.7269 14.3902L15.1968 14.5918C16.0539 14.9667 16.565 15.195 16.565 15.8394C16.565 16.3772 16.0676 16.7664 15.2888 16.7664ZM8.00536 16.7547C7.35964 16.7547 7.09107 16.3118 6.79583 15.788L5.26599 16.7142C5.70917 17.6521 6.58059 18.4308 8.08536 18.4308C9.75075 18.4308 10.8917 17.5451 10.8917 15.5991V9.18323H9.01234V15.5737C9.01234 16.5131 8.62282 16.7547 8.00536 16.7547Z" fill="black"/>
</g>
<defs>
<clipPath id="clip0_170_2783">
<rect width="20" height="20" fill="white"/>
</clipPath>
</defs>
</svg>
