<svg width="32" height="32" viewBox="0 0 32 32" fill="none" xmlns="http://www.w3.org/2000/svg">
<path fill-rule="evenodd" clip-rule="evenodd" d="M11.288 7.89488C11.7372 5.66738 13.7094 4.06396 16 4.06396C18.2906 4.06396 20.2628 5.66738 20.7119 7.89488L21.2487 10.5563C21.5293 11.948 22.0822 13.2716 22.876 14.4525L23.7997 15.8266C24.3761 16.684 24.753 17.6528 24.909 18.6629C25.8269 18.74 26.6316 19.3238 26.978 20.1829L27.7606 22.1231C28.1551 23.1012 27.8697 24.22 27.0536 24.8943L24.0551 27.3724C23.1821 28.094 21.9234 28.126 21.0141 27.4497L19.8067 26.5517C19.7908 26.5399 19.775 26.5278 19.7594 26.5155C19.1666 26.6748 18.5431 26.76 17.8995 26.76H14.1004C13.4569 26.76 12.8334 26.675 12.2407 26.5155C12.2251 26.5278 12.2093 26.5399 12.1934 26.5517L10.986 27.4497C10.0767 28.126 8.81811 28.094 7.945 27.3724L4.94639 24.8943C4.13037 24.22 3.84499 23.1012 4.23949 22.1231L5.02209 20.1829C5.36854 19.3239 6.17311 18.7401 7.09093 18.6629C7.24693 17.6528 7.62379 16.684 8.20018 15.8266L9.12388 14.4525C9.91771 13.2716 10.4706 11.948 10.7512 10.5563L11.288 7.89488ZM21.3227 19.1445C20.9885 19.3945 20.7175 19.7302 20.5455 20.128L19.323 22.9568C18.706 23.3175 17.9927 23.5177 17.2488 23.5177H14.7512C14.0073 23.5177 13.2941 23.3175 12.6771 22.957L11.4546 20.128C11.2826 19.7301 11.0116 19.3945 10.6773 19.1445C10.7183 18.6316 10.8578 18.1247 11.096 17.6524L13.0984 13.6806L13.1104 13.6925C14.7064 15.2752 17.294 15.2752 18.8899 13.6925L18.9017 13.6808L20.904 17.6524C21.1423 18.1247 21.2817 18.6316 21.3227 19.1445ZM18.452 10.8581V8.92738H16.8173V10.2025C17.1642 10.2727 17.5041 10.388 17.8278 10.5486L18.452 10.8581ZM15.1826 10.2026V8.92738H13.5479V10.8583L14.1726 10.5486C14.4962 10.3881 14.8359 10.2728 15.1826 10.2026ZM7.29873 20.2754C6.96452 20.2754 6.66397 20.4772 6.53985 20.785L5.75726 22.7251C5.62576 23.0512 5.72088 23.4241 5.9929 23.649L8.99151 26.1271C9.28254 26.3675 9.70208 26.3782 10.0052 26.1528L11.2126 25.2548C11.5142 25.0305 11.6219 24.6306 11.4734 24.287L9.95206 20.7667C9.82327 20.4686 9.52777 20.2754 9.2008 20.2754H7.29873ZM25.4602 20.785C25.3361 20.4772 25.0356 20.2754 24.7013 20.2754H22.7993C22.4723 20.2754 22.1769 20.4686 22.048 20.7667L20.5267 24.287C20.3782 24.6306 20.4859 25.0305 20.7875 25.2548L21.995 26.1528C22.298 26.3782 22.7175 26.3675 23.0086 26.1271L26.0072 23.649C26.2792 23.4241 26.3744 23.0512 26.2428 22.7251L25.4602 20.785ZM14.9036 11.9986C15.5939 11.6563 16.4065 11.6563 17.0968 11.9986L17.8897 12.3918L17.734 12.5462C16.7765 13.4958 15.2239 13.4958 14.2663 12.5462L14.1106 12.3918L14.9036 11.9986Z" fill="black"/>
</svg>
