<svg width="32" height="32" viewBox="0 0 32 32" fill="none" xmlns="http://www.w3.org/2000/svg">
<path fill-rule="evenodd" clip-rule="evenodd" d="M14.8938 5.06289C18.0741 3.04459 22.4981 3.98238 24.7203 7.18312C25.8008 8.67136 26.2289 10.5469 25.8823 12.3818C25.7396 13.238 25.4134 14.0535 24.9241 14.7874C25.6377 16.1126 25.8619 17.6416 25.5969 19.1298C25.2911 20.9035 24.231 22.4733 22.702 23.4314L17.0956 26.9991C13.9152 29.0174 9.51167 28.0796 7.26911 24.8789C6.209 23.3907 5.78087 21.5151 6.10706 19.7006C6.24977 18.8444 6.57596 18.0289 7.06524 17.295C6.3517 15.9699 6.12745 14.4408 6.39248 12.9526C6.69828 11.1789 7.7584 9.60915 9.28741 8.65097L14.8938 5.06289ZM9.57292 23.4111C10.633 24.9401 12.529 25.6537 14.3434 25.1848C14.7512 25.0624 15.1385 24.8993 15.4851 24.6751L21.0915 21.1074C22.0089 20.5366 22.6613 19.5784 22.8448 18.5183C23.0282 17.4174 22.7836 16.2961 22.1312 15.3991C21.0711 13.8701 19.1751 13.1565 17.3607 13.6254C16.953 13.7477 16.5656 13.9108 16.219 14.1351L14.0784 15.501C13.9765 15.5622 13.8542 15.6029 13.7318 15.6437C13.1814 15.7864 12.6106 15.5825 12.2844 15.1137C12.1009 14.8486 12.0193 14.502 12.0805 14.1759C12.1417 13.8497 12.3251 13.5846 12.6106 13.4012L18.1966 9.83346C18.2985 9.7723 18.4208 9.73152 18.5431 9.69075C19.0936 9.54804 19.6644 9.75191 19.9906 10.2208C20.1537 10.4654 20.2352 10.7713 20.2149 11.0567L20.1945 11.2605L20.3983 11.3217C21.1934 11.5663 21.9274 11.9333 22.6001 12.4226L22.8855 12.6265L22.9875 12.3003C23.0486 12.1168 23.0894 11.9537 23.1302 11.7702C23.3137 10.6693 23.069 9.54804 22.4166 8.65102C21.3565 7.122 19.4605 6.40846 17.6461 6.87736C17.2384 6.99968 16.851 7.16278 16.5045 7.38703L10.8981 10.9547C9.98066 11.5256 9.32828 12.4837 9.1448 13.5439C8.94093 14.6448 9.20596 15.766 9.83795 16.6631C10.8981 18.1921 12.794 18.9056 14.6085 18.4367C15.0162 18.3348 15.4036 18.1717 15.7501 17.9474L17.8908 16.5815C17.9927 16.5203 18.115 16.4796 18.2373 16.4388C18.7878 16.2961 19.3586 16.5 19.6848 16.9689C19.8683 17.2339 19.9498 17.5805 19.8887 17.9066C19.8275 18.2328 19.644 18.4979 19.3586 18.6814L13.7726 22.249C13.6707 22.3102 13.5484 22.351 13.426 22.3918C12.8756 22.5345 12.3048 22.3102 11.9786 21.8413C11.8155 21.5967 11.7339 21.2909 11.7543 21.0055L11.7747 20.8016L11.5708 20.7404C10.7757 20.4958 10.0418 20.1288 9.36906 19.6395L9.08364 19.4357L8.98171 19.7619C8.96132 19.8536 8.94093 19.9402 8.92054 20.0269C8.90016 20.1135 8.87977 20.2002 8.85938 20.2919C8.6759 21.3928 8.92054 22.5141 9.57292 23.4111Z" fill="black"/>
</svg>
