<svg width="20" height="20" viewBox="0 0 20 20" fill="none" xmlns="http://www.w3.org/2000/svg">
<g clip-path="url(#clip0_170_2799)">
<path d="M10 20C8.62654 20 7.33025 19.7377 6.11111 19.213C4.89198 18.6883 3.83117 17.9747 2.9287 17.0722C2.02562 16.1691 1.31173 15.108 0.787037 13.8889C0.262346 12.6698 0 11.3735 0 10C0 8.62654 0.262346 7.33025 0.787037 6.11111C1.31173 4.89198 2.02562 3.83086 2.9287 2.92778C3.83117 2.02531 4.89198 1.31173 6.11111 0.787037C7.33025 0.262346 8.62654 0 10 0C11.3735 0 12.6698 0.262346 13.8889 0.787037C15.108 1.31173 16.1691 2.02531 17.0722 2.92778C17.9747 3.83086 18.6883 4.89198 19.213 6.11111C19.7377 7.33025 20 8.62654 20 10C20 11.3735 19.7377 12.6698 19.213 13.8889C18.6883 15.108 17.9747 16.1691 17.0722 17.0722C16.1691 17.9747 15.108 18.6883 13.8889 19.213C12.6698 19.7377 11.3735 20 10 20ZM10 17.4769C10.3704 16.9367 10.6944 16.3617 10.9722 15.7519C11.25 15.1426 11.4815 14.5216 11.6667 13.8889H8.33333C8.51852 14.5216 8.75 15.1426 9.02778 15.7519C9.30556 16.3617 9.62963 16.9367 10 17.4769ZM7.36111 17.0602C7.09877 16.5972 6.87099 16.0994 6.67778 15.5667C6.48519 15.0346 6.31945 14.4753 6.18056 13.8889H3.54167C3.95833 14.6142 4.50216 15.2546 5.17315 15.8102C5.84475 16.3657 6.57407 16.7824 7.36111 17.0602ZM12.6389 17.0602C13.4259 16.7824 14.1549 16.3657 14.8259 15.8102C15.4975 15.2546 16.0417 14.6142 16.4583 13.8889H13.8194C13.6806 14.4753 13.5148 15.0346 13.3222 15.5667C13.129 16.0994 12.9012 16.5972 12.6389 17.0602ZM2.66204 11.8056H5.76389C5.73303 11.5278 5.70617 11.2383 5.68333 10.937C5.65988 10.6364 5.64815 10.3241 5.64815 10C5.64815 9.67593 5.65988 9.36358 5.68333 9.06296C5.70617 8.76173 5.73303 8.47222 5.76389 8.19445H2.66204C2.58488 8.47222 2.53086 8.76173 2.5 9.06296C2.46914 9.36358 2.4537 9.67593 2.4537 10C2.4537 10.3241 2.46914 10.6364 2.5 10.937C2.53086 11.2383 2.58488 11.5278 2.66204 11.8056ZM7.87037 11.8056H12.1296C12.1759 11.5278 12.2108 11.2383 12.2343 10.937C12.2571 10.6364 12.2685 10.3241 12.2685 10C12.2685 9.67593 12.2571 9.36358 12.2343 9.06296C12.2108 8.76173 12.1759 8.47222 12.1296 8.19445H7.87037C7.82407 8.47222 7.78951 8.76173 7.76667 9.06296C7.74321 9.36358 7.73148 9.67593 7.73148 10C7.73148 10.3241 7.74321 10.6364 7.76667 10.937C7.78951 11.2383 7.82407 11.5278 7.87037 11.8056ZM14.2361 11.8056H17.338C17.4151 11.5278 17.4691 11.2383 17.5 10.937C17.5309 10.6364 17.5463 10.3241 17.5463 10C17.5463 9.67593 17.5309 9.36358 17.5 9.06296C17.4691 8.76173 17.4151 8.47222 17.338 8.19445H14.2361C14.267 8.47222 14.2941 8.76173 14.3176 9.06296C14.3404 9.36358 14.3519 9.67593 14.3519 10C14.3519 10.3241 14.3404 10.6364 14.3176 10.937C14.2941 11.2383 14.267 11.5278 14.2361 11.8056ZM13.8194 6.11111H16.4583C16.0417 5.3858 15.4975 4.74537 14.8259 4.18981C14.1549 3.63426 13.4259 3.21759 12.6389 2.93981C12.9012 3.40278 13.129 3.90031 13.3222 4.43241C13.5148 4.96512 13.6806 5.52469 13.8194 6.11111ZM8.33333 6.11111H11.6667C11.4815 5.4784 11.25 4.86111 10.9722 4.25926C10.6944 3.65741 10.3704 3.04012 10 2.40741C9.62963 3.04012 9.30556 3.65741 9.02778 4.25926C8.75 4.86111 8.51852 5.4784 8.33333 6.11111ZM3.54167 6.11111H6.18056C6.31945 5.52469 6.48519 4.96512 6.67778 4.43241C6.87099 3.90031 7.09877 3.40278 7.36111 2.93981C6.57407 3.21759 5.84475 3.63426 5.17315 4.18981C4.50216 4.74537 3.95833 5.3858 3.54167 6.11111Z" fill="black"/>
</g>
<defs>
<clipPath id="clip0_170_2799">
<rect width="20" height="20" fill="white"/>
</clipPath>
</defs>
</svg>
